<svg width="82" height="49" viewBox="0 0 82 49" fill="none" xmlns="http://www.w3.org/2000/svg">
<g clip-path="url(#clip0_545_30243)">
<path d="M23.6265 17.9323C23.6265 18.92 23.7335 19.721 23.9222 20.3083C24.137 20.8955 24.4053 21.536 24.7813 22.2305C24.915 22.4435 24.9693 22.6572 24.9693 22.844C24.9693 23.111 24.808 23.378 24.4588 23.645L22.7667 24.7663C22.5252 24.9268 22.2837 25.0062 22.0682 25.0062C21.7999 25.0062 21.5309 24.8727 21.2626 24.6327C20.9012 24.2468 20.5775 23.8266 20.2958 23.378C19.9959 22.8654 19.7183 22.3399 19.4635 21.803C17.3679 24.2592 14.7358 25.487 11.5664 25.487C9.30954 25.487 7.51045 24.8465 6.19364 23.5648C4.87832 22.2838 4.20654 20.5753 4.20654 18.4393C4.20654 16.1705 5.01208 14.3285 6.65141 12.9403C8.28924 11.552 10.4651 10.8575 13.2317 10.8575C14.145 10.8575 15.0851 10.9377 16.0786 11.0712C17.0722 11.2048 18.0925 11.4185 19.1678 11.6585V9.71C19.1678 7.68125 18.7375 6.266 17.9045 5.43875C17.0454 4.61075 15.5948 4.21025 13.5275 4.21025C12.5867 4.21025 11.6199 4.3175 10.6263 4.5575C9.63206 4.7975 8.66452 5.0915 7.72521 5.465C7.29569 5.6525 6.97318 5.759 6.78517 5.81225C6.59716 5.8655 6.46265 5.8925 6.3549 5.8925C5.97888 5.8925 5.79087 5.6255 5.79087 5.0645V3.7565C5.79087 3.329 5.84512 3.0095 5.97888 2.822C6.11339 2.63525 6.3549 2.4485 6.73092 2.26175C7.67171 1.78175 8.79976 1.3805 10.1158 1.06025C11.4311 0.71375 12.8282 0.55325 14.3055 0.55325C17.5024 0.55325 19.8388 1.274 21.3429 2.7155C22.8209 4.157 23.5722 6.3455 23.5722 9.2825V17.9323H23.6265ZM12.7212 21.9897C13.6077 21.9897 14.521 21.83 15.4878 21.5098C16.4546 21.1888 17.3144 20.6022 18.0397 19.8005C18.4692 19.2935 18.7917 18.7332 18.953 18.092C19.1135 17.4515 19.2213 16.6775 19.2213 15.77V14.6488C18.4065 14.4517 17.5817 14.3002 16.7504 14.195C15.9128 14.0892 15.0695 14.0356 14.2253 14.0345C12.4254 14.0345 11.1094 14.3817 10.2228 15.1025C9.33704 15.8225 8.90752 16.8372 8.90752 18.1722C8.90752 19.427 9.22929 20.3615 9.90107 21.002C10.5453 21.6695 11.4854 21.9897 12.7212 21.9897ZM34.2895 24.8728C33.8065 24.8728 33.484 24.7932 33.2692 24.6057C33.0537 24.446 32.8664 24.0725 32.7052 23.5648L26.3931 2.93C26.2319 2.396 26.1516 2.04875 26.1516 1.862C26.1516 1.4345 26.3664 1.1945 26.7959 1.1945H29.428C29.9385 1.1945 30.2878 1.27475 30.4758 1.4615C30.6913 1.622 30.8518 1.9955 31.0131 2.5025L35.5253 20.1755L39.7158 2.5025C39.8495 1.9685 40.0115 1.622 40.2263 1.4615C40.441 1.30175 40.8171 1.1945 41.3001 1.1945H43.4492C43.9597 1.1945 44.309 1.27475 44.5237 1.4615C44.7385 1.622 44.9265 1.9955 45.0343 2.5025L49.2775 20.3892L53.9249 2.5025C54.0862 1.9685 54.2742 1.622 54.4622 1.4615C54.677 1.30175 55.0262 1.1945 55.51 1.1945H58.0069C58.4379 1.1945 58.6787 1.40825 58.6787 1.862C58.6787 1.9955 58.6519 2.129 58.6252 2.2895C58.5831 2.51739 58.5201 2.74085 58.4372 2.957L51.9646 23.5925C51.8026 24.1265 51.6153 24.473 51.3998 24.6335C51.1843 24.794 50.8358 24.9005 50.3788 24.9005H48.0692C47.5586 24.9005 47.2094 24.8203 46.9946 24.6335C46.7798 24.446 46.5918 24.0995 46.4841 23.5655L42.3211 6.34625L38.1849 23.5385C38.0504 24.0725 37.8892 24.419 37.6744 24.6057C37.4589 24.7932 37.0836 24.8728 36.5999 24.8728H34.2895ZM68.8052 25.5935C67.4081 25.5935 66.0118 25.4338 64.669 25.1135C63.3261 24.7933 62.2783 24.446 61.5798 24.0455C61.1503 23.8055 60.8545 23.5385 60.7475 23.2977C60.6431 23.0627 60.5882 22.8083 60.5863 22.5507V21.1887C60.5863 20.6285 60.801 20.3615 61.2038 20.3615C61.365 20.3615 61.5263 20.3878 61.6868 20.4417C61.8488 20.4943 62.0903 20.6015 62.3586 20.7087C63.2726 21.1092 64.2662 21.4288 65.3132 21.6425C66.3878 21.8563 67.4356 21.9627 68.5101 21.9627C70.2022 21.9627 71.5183 21.6695 72.4316 21.0823C73.3449 20.495 73.8286 19.6408 73.8286 18.5457C73.8286 17.7987 73.5864 17.1845 73.1026 16.6775C72.6196 16.1705 71.7055 15.716 70.3902 15.2892L66.4955 14.0878C64.5344 13.4743 63.0846 12.566 62.1973 11.3653C61.3115 10.1908 60.8545 8.88275 60.8545 7.49375C60.8545 6.3725 61.096 5.3855 61.5798 4.53125C62.0615 3.66969 62.7212 2.92279 63.5141 2.34125C64.3197 1.72775 65.233 1.274 66.3075 0.95375C67.3813 0.6335 68.5101 0.5 69.6917 0.5C70.2825 0.5 70.9007 0.52625 71.4915 0.6065C72.1091 0.68675 72.6731 0.794 73.2379 0.9005C73.7744 1.034 74.2849 1.1675 74.7687 1.328C75.2517 1.48775 75.6277 1.6475 75.8967 1.808C76.2728 2.02175 76.541 2.2355 76.7023 2.4755C76.8635 2.6885 76.9438 2.9825 76.9438 3.356V4.61075C76.9438 5.17175 76.729 5.46575 76.3263 5.46575C76.1115 5.46575 75.7622 5.3585 75.3052 5.14475C73.7744 4.451 72.0556 4.10375 70.148 4.10375C68.6171 4.10375 67.4088 4.34375 66.5758 4.8515C65.7435 5.3585 65.3132 6.1325 65.3132 7.2275C65.3132 7.9745 65.5822 8.615 66.1195 9.12275C66.6568 9.62975 67.6503 10.1368 69.0742 10.5905L72.8878 11.792C74.8222 12.4062 76.2185 13.2605 77.0516 14.3547C77.8838 15.4497 78.2866 16.7045 78.2866 18.092C78.2866 19.2395 78.0451 20.282 77.5888 21.1895C77.1051 22.097 76.4608 22.8973 75.6277 23.5385C74.7954 24.206 73.8011 24.686 72.6463 25.0332C71.4373 25.4067 70.1755 25.5935 68.8052 25.5935Z" fill="black"/>
<path d="M73.8792 38.5702C65.0427 45.0562 52.2031 48.5002 41.1641 48.5002C25.6923 48.5002 11.7514 42.8152 1.22216 33.3652C0.389865 32.6175 1.1419 31.6027 2.1362 32.19C13.5245 38.757 27.5724 42.735 42.1041 42.735C51.9081 42.735 62.6789 40.7062 72.5898 36.5415C74.0672 35.874 75.3297 37.503 73.8792 38.5702Z" fill="black"/>
<path d="M77.5538 34.4029C76.425 32.9614 70.0862 33.7092 67.2126 34.0557C66.3528 34.1629 66.2183 33.4152 66.9971 32.8549C72.0473 29.3307 80.3472 30.3454 81.314 31.5199C82.2808 32.7214 81.045 40.9699 76.318 44.9209C75.5928 45.5352 74.8942 45.2149 75.2167 44.4139C76.2913 41.7709 78.6819 35.8182 77.5538 34.4029Z" fill="black"/>
<path d="M23.6265 17.9323C23.6265 18.92 23.7335 19.721 23.9222 20.3083C24.137 20.8955 24.4053 21.536 24.7813 22.2305C24.915 22.4435 24.9693 22.6572 24.9693 22.844C24.9693 23.111 24.808 23.378 24.4588 23.645L22.7667 24.7663C22.5252 24.9268 22.2837 25.0062 22.0682 25.0062C21.7999 25.0062 21.5309 24.8727 21.2626 24.6327C20.9012 24.2468 20.5774 23.8266 20.2958 23.378C19.9959 22.8654 19.7182 22.3399 19.4635 21.803C17.3679 24.2592 14.7358 25.487 11.5664 25.487C9.30954 25.487 7.51045 24.8465 6.19364 23.5648C4.87832 22.2838 4.20654 20.5753 4.20654 18.4393C4.20654 16.1705 5.01208 14.3285 6.65141 12.9403C8.28924 11.552 10.4651 10.8575 13.2317 10.8575C14.145 10.8575 15.0851 10.9377 16.0786 11.0712C17.0722 11.2048 18.0925 11.4185 19.1678 11.6585V9.71C19.1678 7.68125 18.7375 6.266 17.9045 5.43875C17.0454 4.61075 15.5948 4.21025 13.5275 4.21025C12.5867 4.21025 11.6199 4.3175 10.6263 4.5575C9.63206 4.7975 8.66452 5.0915 7.72521 5.465C7.29569 5.6525 6.97318 5.759 6.78517 5.81225C6.59716 5.8655 6.46265 5.8925 6.3549 5.8925C5.97888 5.8925 5.79087 5.6255 5.79087 5.0645V3.7565C5.79087 3.329 5.84512 3.0095 5.97888 2.822C6.11339 2.63525 6.3549 2.4485 6.73092 2.26175C7.67171 1.78175 8.79976 1.3805 10.1158 1.06025C11.4311 0.71375 12.8282 0.55325 14.3055 0.55325C17.5024 0.55325 19.8388 1.274 21.3429 2.7155C22.8209 4.157 23.5722 6.3455 23.5722 9.2825V17.9323H23.6265ZM12.7212 21.9897C13.6077 21.9897 14.521 21.83 15.4878 21.5098C16.4546 21.1888 17.3144 20.6022 18.0397 19.8005C18.4692 19.2935 18.7917 18.7332 18.953 18.092C19.1135 17.4515 19.2213 16.6775 19.2213 15.77V14.6488C18.4066 14.4517 17.5817 14.3002 16.7504 14.195C15.9128 14.0892 15.0695 14.0356 14.2253 14.0345C12.4254 14.0345 11.1094 14.3817 10.2228 15.1025C9.33704 15.8225 8.90752 16.8372 8.90752 18.1722C8.90752 19.427 9.22929 20.3615 9.90107 21.002C10.5453 21.6695 11.4854 21.9897 12.7212 21.9897ZM34.2895 24.8728C33.8065 24.8728 33.484 24.7932 33.2692 24.6057C33.0537 24.446 32.8664 24.0725 32.7052 23.5648L26.3931 2.93C26.2319 2.396 26.1516 2.04875 26.1516 1.862C26.1516 1.4345 26.3664 1.1945 26.7959 1.1945H29.428C29.9385 1.1945 30.2878 1.27475 30.4758 1.4615C30.6913 1.622 30.8518 1.9955 31.0131 2.5025L35.5253 20.1755L39.7158 2.5025C39.8495 1.9685 40.0115 1.622 40.2263 1.4615C40.441 1.30175 40.8171 1.1945 41.3001 1.1945H43.4492C43.9597 1.1945 44.309 1.27475 44.5237 1.4615C44.7392 1.622 44.9265 1.9955 45.0343 2.5025L49.2775 20.3885L53.9257 2.5025C54.0869 1.9685 54.2749 1.622 54.463 1.4615C54.6777 1.30175 55.027 1.1945 55.5108 1.1945H58.0076C58.4386 1.1945 58.6794 1.40825 58.6794 1.862C58.6794 1.9955 58.6527 2.129 58.6259 2.2895C58.5838 2.51738 58.5208 2.74083 58.4379 2.957L51.9653 23.5925C51.8033 24.1265 51.6161 24.473 51.4006 24.6335C51.1851 24.794 50.8365 24.9005 50.3803 24.9005H48.0699C47.5594 24.9005 47.2101 24.8203 46.9953 24.6335C46.7806 24.446 46.5926 24.0995 46.4848 23.5655L42.3211 6.34625L38.1849 23.5385C38.0504 24.0725 37.8892 24.419 37.6744 24.6057C37.4589 24.7932 37.0836 24.8728 36.5999 24.8728H34.2895ZM68.8052 25.5935C67.4081 25.5935 66.0118 25.4338 64.669 25.1135C63.3261 24.7933 62.2783 24.446 61.5798 24.0455C61.1503 23.8055 60.8545 23.5385 60.7475 23.2977C60.6431 23.0627 60.5882 22.8083 60.5863 22.5507V21.1887C60.5863 20.6285 60.801 20.3615 61.2038 20.3615C61.365 20.3615 61.5263 20.3878 61.6868 20.4417C61.8488 20.4943 62.0903 20.6015 62.3586 20.7087C63.2726 21.1092 64.2662 21.4288 65.3132 21.6425C66.3878 21.8563 67.4356 21.9627 68.5101 21.9627C70.2022 21.9627 71.5183 21.6695 72.4316 21.0823C73.3449 20.495 73.8286 19.6408 73.8286 18.5457C73.8286 17.7987 73.5864 17.1845 73.1026 16.6775C72.6196 16.1705 71.7055 15.716 70.3902 15.2892L66.4955 14.0878C64.5344 13.4743 63.0846 12.566 62.1973 11.3653C61.3115 10.1908 60.8545 8.88275 60.8545 7.49375C60.8545 6.3725 61.096 5.3855 61.5798 4.53125C62.0615 3.66972 62.7212 2.92283 63.5141 2.34125C64.3197 1.72775 65.233 1.274 66.3075 0.95375C67.3813 0.6335 68.5101 0.5 69.6917 0.5C70.2825 0.5 70.9007 0.52625 71.4915 0.6065C72.1091 0.68675 72.6731 0.794 73.2379 0.9005C73.7744 1.034 74.2849 1.1675 74.7687 1.328C75.2517 1.48775 75.6277 1.6475 75.8967 1.808C76.2728 2.02175 76.541 2.2355 76.7023 2.4755C76.8635 2.6885 76.9438 2.9825 76.9438 3.356V4.61075C76.9438 5.17175 76.729 5.46575 76.3263 5.46575C76.1115 5.46575 75.7622 5.3585 75.3052 5.14475C73.7744 4.451 72.0556 4.10375 70.148 4.10375C68.6171 4.10375 67.4088 4.34375 66.5758 4.8515C65.7435 5.3585 65.3132 6.1325 65.3132 7.2275C65.3132 7.9745 65.5822 8.615 66.1195 9.12275C66.6568 9.62975 67.6503 10.1368 69.0742 10.5905L72.8878 11.792C74.8222 12.4062 76.2185 13.2605 77.0516 14.3547C77.8838 15.4497 78.2874 16.7045 78.2874 18.092C78.2874 19.2395 78.0451 20.282 77.5888 21.1895C77.1051 22.097 76.4608 22.8973 75.6277 23.5385C74.7954 24.206 73.8011 24.686 72.6463 25.0332C71.438 25.4067 70.1755 25.5935 68.8052 25.5935Z" fill="black"/>
<path d="M73.8792 38.5702C65.0428 45.0562 52.2032 48.5002 41.1641 48.5002C25.6924 48.5002 11.7515 42.8152 1.22295 33.3652C0.390659 32.6175 1.1427 31.6027 2.13699 32.19C13.5253 38.7577 27.5732 42.735 42.1049 42.735C51.9089 42.735 62.6797 40.7062 72.5906 36.5415C74.068 35.874 75.3298 37.503 73.8792 38.5702Z" fill="black"/>
<path d="M77.5538 34.4029C76.425 32.9614 70.0862 33.7092 67.2126 34.0557C66.3528 34.1629 66.2183 33.4152 66.9971 32.8549C72.0473 29.3307 80.3472 30.3454 81.314 31.5199C82.2808 32.7214 81.045 40.9699 76.318 44.9209C75.5928 45.5352 74.8942 45.2149 75.2167 44.4139C76.2913 41.7709 78.6819 35.8182 77.5538 34.4029Z" fill="black"/>
</g>
<defs>
<clipPath id="clip0_545_30243">
<rect width="81" height="48" fill="white" transform="translate(0.864746 0.5)"/>
</clipPath>
</defs>
</svg>
