<svg width="74" height="76" viewBox="0 0 74 76" fill="none" xmlns="http://www.w3.org/2000/svg">
<rect width="74" height="76" rx="12" fill="#F9F9F9"/>
<path d="M37 63.9803C51.3594 63.9803 63 52.3479 63 37.9985C63 23.6491 51.3594 12.0166 37 12.0166C22.6406 12.0166 11 23.6491 11 37.9985C11 52.3479 22.6406 63.9803 37 63.9803Z" fill="#E6EDFF"/>
<path d="M18.0264 29.3584L18.672 29.4951L17.9254 29.7067C17.7324 29.7614 17.5578 29.8673 17.4202 30.0132C17.2826 30.159 17.187 30.3394 17.1437 30.5351L17.0053 31.1606L16.8668 30.5351C16.8235 30.3394 16.728 30.159 16.5904 30.0132C16.4528 29.8673 16.2782 29.7614 16.0852 29.7067L15.3386 29.4951L15.9842 29.3584C16.189 29.315 16.3774 29.2147 16.5276 29.069C16.6779 28.9233 16.7839 28.7382 16.8334 28.5349L17.0053 27.8296L17.1772 28.5349C17.2267 28.7382 17.3327 28.9233 17.483 29.069C17.6332 29.2147 17.8216 29.315 18.0264 29.3584Z" fill="#E56AB9"/>
<path d="M58.3323 29.7735L58.9779 29.9101L58.2313 30.1218C58.0383 30.1765 57.8637 30.2824 57.7261 30.4282C57.5885 30.5741 57.493 30.7544 57.4496 30.9502L57.3112 31.5756L57.1728 30.9502C57.1294 30.7544 57.0339 30.5741 56.8963 30.4282C56.7587 30.2824 56.5841 30.1765 56.3911 30.1218L55.6445 29.9101L56.2901 29.7735C56.4949 29.7301 56.6833 29.6298 56.8335 29.4841C56.9838 29.3384 57.0898 29.1532 57.1393 28.9499L57.3112 28.2446L57.4831 28.9499C57.5326 29.1532 57.6386 29.3384 57.7889 29.4841C57.9391 29.6298 58.1275 29.7301 58.3323 29.7735Z" fill="#7DB4BA"/>
<path d="M52.8889 46.436H21.7778V14.7763C21.7778 13.5499 22.7727 12.5557 24.0001 12.5557H56.6667L52.8889 16.5358V46.436Z" fill="#F1F1F1"/>
<path d="M32.8889 14.7763H54.5589L56.6667 12.5557H24.0001C22.7727 12.5557 21.7778 13.5499 21.7778 14.7763V46.436H24.0001V23.659C24.0001 18.7532 27.9797 14.7763 32.8889 14.7763Z" fill="#D5D5D5"/>
<path d="M51.1111 17.6104V22.4959C51.1111 22.7315 51.2047 22.9574 51.3714 23.124C51.5381 23.2906 51.7642 23.3842 52 23.3842C52.2357 23.3842 52.4618 23.2906 52.6285 23.124C52.7952 22.9574 52.8889 22.7315 52.8889 22.4959V17.6104C52.8889 17.3749 52.7952 17.1489 52.6285 16.9823C52.4618 16.8158 52.2357 16.7222 52 16.7222C51.7642 16.7222 51.5381 16.8158 51.3714 16.9823C51.2047 17.1489 51.1111 17.3749 51.1111 17.6104ZM51.1111 25.938V27.4924C51.1111 27.728 51.2047 27.9539 51.3714 28.1205C51.5381 28.2871 51.7642 28.3807 52 28.3807C52.2357 28.3807 52.4618 28.2871 52.6285 28.1205C52.7952 27.9539 52.8889 27.728 52.8889 27.4924V25.938C52.8889 25.7024 52.7952 25.4764 52.6285 25.3099C52.4618 25.1433 52.2357 25.0497 52 25.0497C51.7642 25.0497 51.5381 25.1433 51.3714 25.3099C51.2047 25.4764 51.1111 25.7024 51.1111 25.938Z" fill="white"/>
<path d="M60.3938 16.2919C60.3938 14.2285 58.7138 12.5557 56.6414 12.5557C54.5689 12.5557 52.8889 14.2285 52.8889 16.2919V21.4216H60.3938V16.2919Z" fill="#7F7F7F"/>
<path d="M60.3937 16.2919C60.3937 14.2285 58.7137 12.5557 56.6412 12.5557C55.0219 12.5557 53.6421 13.577 53.1162 15.008C53.5333 14.8543 53.9744 14.7759 54.419 14.7763C56.4914 14.7763 58.1714 16.4491 58.1714 18.5126V21.4216H60.3937V16.2919Z" fill="#6C6C6C"/>
<path d="M22.1779 34.1924L12.7993 44.4135L13.592 44.8614C14.991 45.6518 16.1749 46.7727 17.0469 48.1368L17.0808 48.1899C17.9695 49.579 19.2027 50.7147 20.6606 51.4866L21.8969 52.141L31.1088 59.338L35.9782 63.0563C36.7941 63.7026 37.9769 63.5063 38.6582 62.6654C39.4093 61.7385 39.267 60.3791 38.341 59.6272L39.9154 60.9013C40.8202 61.6335 42.1476 61.4942 42.8802 60.5901C43.6129 59.6861 43.4732 58.3595 42.5684 57.6274L44.2929 59.0229C45.1976 59.755 46.5251 59.6158 47.2576 58.7116C47.9903 57.8076 47.8507 56.4811 46.9459 55.7489L47.7841 56.4272C48.702 57.17 50.0486 57.0288 50.7922 56.1118L50.7924 56.1116C51.526 55.2069 51.3997 53.8819 50.5083 53.1319L47.2805 50.4159L46.595 48.6639L44.1496 42.4677L35.4929 41.0584L34.2278 40.1011C34.2278 40.1011 31.3626 37.9872 28.5827 37.6718C27.4491 37.5431 26.3503 37.1809 25.3753 36.589C24.3342 35.9568 23.3613 35.0371 23.4326 33.8267L22.1779 34.1924Z" fill="#FFDECF"/>
<path d="M35.9782 60.8364L31.1088 57.1181L21.8969 49.9211L20.6606 49.2667C19.2027 48.4948 17.9695 47.3591 17.0808 45.97L17.0469 45.9169C16.2942 44.7377 15.2989 43.7322 14.1271 42.9673L12.7993 44.4144L13.592 44.8623C14.991 45.6527 16.1749 46.7736 17.0469 48.1377L17.0808 48.1908C17.9694 49.5799 19.2027 50.7156 20.6606 51.4874L21.8969 52.1419L31.1088 59.3389L35.9782 63.0571C36.7941 63.7035 37.9768 63.5072 38.6582 62.6663C39.2459 61.941 39.2843 60.9521 38.8305 60.1954C38.779 60.2827 38.7214 60.3663 38.6582 60.4456C37.9769 61.2865 36.7941 61.4827 35.9782 60.8364Z" fill="#FCB497"/>
<path d="M21.9525 32.3332L25.1874 34.5134C25.8132 34.9352 25.9771 35.7853 25.553 36.4095L17.2802 48.5836C16.8583 49.2044 16.014 49.3672 15.3916 48.9477L12.1571 46.7678C11.5313 46.3461 11.3668 45.4968 11.791 44.8725L20.0644 32.6966C20.4863 32.0757 21.3302 31.9137 21.9525 32.3332Z" fill="#80D8FF"/>
<path d="M16.2501 42.1764C18.2615 39.1959 20.9725 35.1697 22.5972 32.7676L21.9525 32.3331C21.3301 31.9137 20.4863 32.0758 20.0644 32.6966C18.2371 35.3856 13.624 42.1745 11.791 44.8724C11.3668 45.4966 11.5313 46.3459 12.1571 46.7676L15.3916 48.9475C16.014 49.367 16.8584 49.2043 17.2802 48.5835L18.0772 47.4106L17.1796 46.8194C15.631 45.7994 15.2131 43.713 16.2501 42.1764Z" fill="#8C9EFF"/>
<path d="M29.54 39.4972L35.2541 36.0095C35.8207 35.6636 36.4578 35.4493 37.1183 35.3821C37.7789 35.315 38.4461 35.3969 39.0708 35.6217L43.0871 37.0668C43.9184 37.3659 44.8201 37.4102 45.6768 37.1941L52.1281 35.5668L57.7354 47.2054C57.7354 47.2054 55.5688 51.9323 50.0721 52.765L37.1048 41.6239L34.0143 42.5474L32.0051 45.0209C30.5713 46.7861 28.0992 47.3122 26.0701 46.284C25.4661 45.9779 25.275 45.2072 25.6662 44.6548L28.8853 40.1087C29.0597 39.8625 29.2824 39.6544 29.54 39.4972Z" fill="#FFDECF"/>
<path d="M30.54 41.7178L36.2541 38.2301C36.8207 37.8843 37.4578 37.6699 38.1183 37.6028C38.7789 37.5356 39.4461 37.6175 40.0708 37.8423L44.0871 39.2874C44.9184 39.5865 45.8201 39.6308 46.6768 39.4147L53.1281 37.7873L57.7003 47.2774C57.7237 47.2307 57.7354 47.2052 57.7354 47.2052L52.1281 35.5667L45.6768 37.1941C44.8201 37.4102 43.9184 37.3658 43.0871 37.0667L39.0708 35.6216C38.4461 35.3968 37.7789 35.315 37.1183 35.3821C36.4578 35.4493 35.8207 35.6636 35.2541 36.0095L29.54 39.4971C29.2824 39.6544 29.0597 39.8624 28.8853 40.1086L25.6662 44.6546C25.275 45.207 25.4661 45.9778 26.0701 46.2838C26.3238 46.4124 26.5884 46.5184 26.8608 46.6005L29.8853 42.3293C30.0597 42.0831 30.2824 41.875 30.54 41.7178Z" fill="#FCB497"/>
<path d="M52.9974 32.3946L49.6183 34.3438C48.9646 34.7209 48.7419 35.5576 49.1214 36.2099L56.5249 48.9314C56.9024 49.5801 57.7333 49.8015 58.3834 49.4264L61.7621 47.4775C62.4158 47.1004 62.639 46.2646 62.2595 45.6123C60.6191 42.7931 56.4908 35.6988 54.8555 32.8889C54.478 32.2402 53.6475 32.0196 52.9974 32.3946Z" fill="#E56AB9"/>
<path d="M62.2594 45.6123C60.619 42.7931 56.4907 35.6988 54.8554 32.8889C54.4779 32.2401 53.6474 32.0196 52.9973 32.3947L52.3811 32.7502C54.4104 36.2501 56.4406 39.7495 58.4715 43.2484C59.396 44.8408 58.8524 46.8801 57.2581 47.8025L56.2179 48.4043L56.5248 48.9317C56.9023 49.5805 57.7332 49.8017 58.3833 49.4267L61.762 47.4777C62.4157 47.1004 62.6389 46.2647 62.2594 45.6123Z" fill="#BD50B6"/>
<path d="M28.6523 52.8848L25.1285 57.9137C24.4862 58.8302 24.7235 60.0954 25.6545 60.7173L25.6864 60.7386C26.5915 61.3433 27.8145 61.1121 28.436 60.2187L31.9425 55.1788C32.5706 54.276 32.3496 53.0356 31.4483 52.4049L31.4337 52.3947C30.5302 51.7626 29.2849 51.982 28.6523 52.8848Z" fill="#FFDECF"/>
<path d="M26.5729 58.8019L30.0967 53.7731C30.5326 53.1511 31.2593 52.8536 31.9646 52.9355C31.8272 52.7279 31.652 52.5479 31.4482 52.4049L31.4336 52.3947C30.5302 51.7626 29.2848 51.982 28.6523 52.8848L25.1285 57.9137C24.4862 58.8302 24.7235 60.0954 25.6544 60.7173L25.6863 60.7386C25.9455 60.9117 26.2419 61.0214 26.5515 61.0588C26.1058 60.395 26.0849 59.4982 26.5729 58.8019Z" fill="#FCB497"/>
<path d="M27.5254 51.0134C28.4289 51.6456 28.6484 52.89 28.0159 53.7928L25.1035 57.9491C24.4709 58.8519 23.2256 59.0713 22.3222 58.4392C21.4187 57.8071 21.1992 56.5626 21.8317 55.6598L24.7441 51.5035C25.3767 50.6007 26.622 50.3813 27.5254 51.0134Z" fill="#FFDECF"/>
<path d="M23.3874 56.548L26.2997 52.3918C26.7099 51.8064 27.3778 51.5104 28.043 51.5456C27.9054 51.3374 27.7299 51.1568 27.5255 51.0135C26.622 50.3812 25.3767 50.6006 24.7441 51.5036L21.8318 55.6598C21.1991 56.5626 21.4188 57.8069 22.3222 58.4392C22.6279 58.653 22.9876 58.7764 23.3602 58.7953C22.9199 58.1314 22.9026 57.2399 23.3874 56.548Z" fill="#FCB497"/>
<path d="M30.6925 56.9088L29.053 59.2487C28.4203 60.1515 28.64 61.3958 29.5434 62.0281C30.4469 62.6602 31.6922 62.4408 32.3248 61.538L33.9643 59.198C34.597 58.2952 34.3773 57.0509 33.4739 56.4187C32.5704 55.7865 31.3252 56.0059 30.6925 56.9088Z" fill="#FFDECF"/>
<path d="M30.4974 60.248L32.137 57.9081C32.5863 57.2667 33.3448 56.9725 34.0702 57.0811C33.9243 56.818 33.7203 56.5914 33.4739 56.4187C32.5704 55.7865 31.3251 56.0059 30.6925 56.9088L29.053 59.2487C28.4203 60.1515 28.64 61.3958 29.5434 62.0281C29.7961 62.2047 30.0865 62.32 30.3915 62.3649C30.0304 61.7178 30.0437 60.8955 30.4974 60.248Z" fill="#FCB497"/>
<path d="M22.9389 50.6726C22.0354 50.0404 20.7901 50.2599 20.1575 51.1627L19.1543 52.5945C18.5216 53.4973 18.7413 54.7417 19.6448 55.3739C20.5482 56.006 21.7935 55.7866 22.4261 54.8838L23.4293 53.452C24.0619 52.5492 23.8423 51.3048 22.9389 50.6726Z" fill="#FFDECF"/>
<path d="M20.4875 53.4828L21.4908 52.051C21.9508 51.3945 22.7346 51.1016 23.4756 51.2325C23.3352 51.0125 23.1528 50.8223 22.9389 50.6726C22.0354 50.0404 20.7901 50.2598 20.1575 51.1627L19.1543 52.5945C18.5216 53.4973 18.7413 54.7417 19.6448 55.3739C19.883 55.5404 20.1549 55.6525 20.4413 55.7024C20.0188 55.0416 20.0096 54.1649 20.4875 53.4828Z" fill="#FCB497"/>
<path d="M33.2348 32.5008C31.4674 32.5009 30.7019 31.2256 30.3518 30.3873C28.8396 31.1258 27.5415 31.4313 27.4275 31.4573C27.3562 31.4742 27.2822 31.4768 27.2098 31.4649C27.1375 31.4531 27.0682 31.4271 27.0059 31.3883C26.9437 31.3496 26.8897 31.2989 26.8472 31.2392C26.8046 31.1795 26.7743 31.112 26.758 31.0406C26.7417 30.9692 26.7397 30.8952 26.7521 30.823C26.7645 30.7508 26.7911 30.6817 26.8304 30.6198C26.8697 30.5579 26.9208 30.5044 26.9809 30.4624C27.0409 30.4203 27.1087 30.3906 27.1803 30.3748C27.217 30.3663 28.4912 30.0631 29.9447 29.3403C29.0919 27.0545 30.0181 24.4812 32.1644 23.3448C33.6882 22.4318 35.627 24.1173 34.9911 25.7568C34.3379 27.6422 32.8334 28.9635 31.3364 29.8559C31.7106 30.8092 32.3162 31.6705 33.962 31.3031C34.606 31.1594 35.0887 30.6226 35.1358 29.9977C35.0621 29.4042 35.8987 29.1147 36.1826 29.6521C36.4731 30.1791 37.2926 31.2532 37.9622 31.2019C38.4767 31.1633 39.0168 30.4467 39.483 29.1843C39.624 28.7604 40.2489 28.6951 40.4743 29.0809C40.6979 29.4331 41.4877 30.4277 42.1539 30.3689C42.5686 30.3323 42.9964 29.8262 43.3587 28.9437C43.4974 28.5755 44.0219 28.4806 44.2806 28.7776C44.2833 28.7806 44.7811 29.2993 45.3517 29.2793C45.6664 29.2681 45.9742 29.0818 46.2666 28.7253C46.36 28.6114 46.4948 28.5393 46.6414 28.5248C46.7881 28.5102 46.9345 28.5545 47.0484 28.6478C47.1624 28.7412 47.2346 28.8759 47.2492 29.0225C47.2637 29.169 47.2194 29.3153 47.126 29.4292C46.6193 30.0469 46.0318 30.37 45.3797 30.3893C44.8602 30.4056 44.4105 30.2212 44.0769 30.0191C43.5795 30.9241 42.9663 31.4132 42.2484 31.4752C41.3898 31.5499 40.6429 30.9774 40.1491 30.4552C39.5668 31.6394 38.8732 32.2481 38.0429 32.3093C37.1564 32.374 36.4046 31.7564 35.8961 31.1672C35.404 32.0739 34.2313 32.5318 33.2348 32.5008ZM32.6843 24.326C31.0727 25.1508 30.3699 27.0672 30.9304 28.7937C32.1947 28.0121 33.4175 26.9046 33.941 25.3935C34.1462 24.7447 33.3381 23.9913 32.6843 24.326ZM47.3334 19.769H27.451C27.3037 19.769 27.1623 19.7105 27.0582 19.6064C26.954 19.5023 26.8954 19.3611 26.8954 19.2139C26.8954 19.0666 26.954 18.9254 27.0582 18.8213C27.1623 18.7172 27.3037 18.6587 27.451 18.6587H47.3333C47.4807 18.6587 47.622 18.7172 47.7262 18.8213C47.8304 18.9254 47.8889 19.0666 47.8889 19.2138C47.889 19.361 47.8304 19.5023 47.7263 19.6064C47.6221 19.7105 47.4808 19.769 47.3334 19.769ZM16.2553 44.2179C16.7501 44.5511 16.8808 45.2216 16.5471 45.7155C16.2134 46.2094 15.5419 46.3396 15.0471 46.0064C14.5523 45.6732 14.4217 45.0026 14.7553 44.5088C15.089 44.0149 15.7605 43.8846 16.2553 44.2179ZM57.8519 44.6486C57.3351 44.9465 57.158 45.6062 57.4563 46.1222C57.7548 46.6382 58.4156 46.8149 58.9324 46.517C59.4493 46.2191 59.6263 45.5594 59.328 45.0434C59.0296 44.5274 58.3687 44.3507 57.8519 44.6486Z" fill="#333333"/>
<path d="M62.7401 45.3336L55.3361 32.6102C54.9398 31.929 54.1831 31.5831 53.4448 31.6724V21.9763H60.3942C60.5415 21.9763 60.6828 21.9178 60.787 21.8137C60.8912 21.7095 60.9497 21.5683 60.9497 21.4211V16.2914C60.9497 13.9515 59.0596 12.0442 56.7206 12.002L56.7237 12H24.0004C22.4687 12 21.2226 13.2452 21.2226 14.7758V31.5472C20.5983 31.5383 19.9809 31.8315 19.6053 32.3843L11.3319 44.5603C10.7334 45.4031 10.9778 46.6677 11.8469 47.2277L15.0815 49.4077C15.7446 49.856 16.6143 49.8369 17.2591 49.3837C17.8624 50.1309 18.5687 50.7887 19.3571 51.3375L18.6997 52.2757C17.8924 53.4279 18.1736 55.0215 19.3266 55.8282C19.8263 56.1756 20.3964 56.3227 20.9701 56.2814C20.7684 57.25 21.1429 58.2914 22.0041 58.8938C22.6679 59.3557 23.4705 59.4679 24.2191 59.2408C24.2738 60.0246 24.6905 60.7441 25.3457 61.1781C26.2233 61.7859 27.3957 61.7669 28.2594 61.1665C28.427 61.6997 28.7667 62.1625 29.2253 62.4824C30.3653 63.2836 31.9683 63.0158 32.7804 61.856L33.0283 61.5021L35.6336 63.4915C36.7111 64.3371 38.2147 64.094 39.0905 63.0149C39.4562 62.5644 39.6672 62.0083 39.6922 61.4287C40.7892 62.2484 42.4705 62.023 43.3126 60.9396C43.6681 60.5009 43.8709 59.9733 43.9022 59.4206C44.9931 60.3785 46.8001 60.2084 47.6902 59.0612C48.0886 58.5704 48.2984 57.9534 48.2817 57.3217C49.3149 57.6632 50.4997 57.3551 51.2248 56.4611C52.0273 55.4714 52.0052 54.0596 51.2415 53.0933C53.7406 52.4545 55.4807 51.0598 56.6016 49.8143C57.2058 50.2378 58.0139 50.2829 58.6617 49.9072L62.0404 47.9582C62.9464 47.4607 63.2784 46.216 62.7401 45.3336ZM56.6417 13.1103C58.4045 13.1103 59.8386 14.5373 59.8386 16.2914V20.8659H53.4448V16.2914C53.4448 14.5373 54.8789 13.1103 56.6417 13.1103ZM24.0004 13.1103H53.7534C52.882 13.8961 52.3337 15.0311 52.3337 16.2914V32.1369L49.3407 33.8634C48.6277 34.2599 48.2427 35.1382 48.4246 35.9286L45.5413 36.656C44.7919 36.846 44.0028 36.8072 43.2757 36.5446L39.2594 35.0995C37.8284 34.5846 36.2629 34.7437 34.9649 35.5359L31.2271 37.8173C30.4197 37.4903 29.5334 37.2212 28.6458 37.1205C27.7915 37.0234 26.9603 36.7793 26.1893 36.399C26.5562 35.5838 26.2532 34.5412 25.4985 34.0526L22.3336 31.9197V14.7758C22.3337 13.8575 23.0814 13.1103 24.0004 13.1103ZM16.8211 48.2712C16.5718 48.638 16.0702 48.7347 15.7027 48.487L12.4682 46.3072C12.1022 46.0713 11.9989 45.5389 12.2511 45.184L20.5244 33.008C20.7747 32.639 21.2792 32.5472 21.6422 32.7929L24.8772 34.9732C25.2433 35.2089 25.3458 35.7423 25.0937 36.0972L16.8211 48.2712ZM21.7438 54.8177C21.2662 55.2543 20.4903 55.3008 19.9637 54.9186C19.3126 54.463 19.1538 53.5631 19.6097 52.9124L20.6129 51.4807C21.0715 50.8257 21.9767 50.6746 22.6206 51.1269C23.1766 51.516 23.3721 52.2288 23.1338 52.8339L21.7438 54.8177ZM24.6737 57.595L24.6734 57.5955L24.6488 57.6306C24.1928 58.2814 23.2922 58.4399 22.6413 57.9845C21.9902 57.5288 21.8313 56.629 22.2872 55.9783L25.1995 51.8221C25.6582 51.167 26.5633 51.0159 27.2072 51.4682C27.8581 51.9237 28.0169 52.8231 27.5617 53.4737L24.6737 57.595ZM27.9802 59.9016C27.5346 60.542 26.6444 60.7104 25.9959 60.2772C25.3098 59.8639 25.1096 58.8783 25.5837 58.2322L29.1076 53.2031C29.5636 52.5525 30.4641 52.3937 31.1165 52.8503L31.1299 52.8596C31.7788 53.3136 31.9389 54.2119 31.4867 54.8619L27.9802 59.9016ZM31.8699 61.2194C31.4139 61.8699 30.5135 62.0286 29.8623 61.5732C29.3322 61.2155 29.1074 60.4889 29.3373 59.8961L31.3598 56.989C31.8542 56.5382 32.6045 56.4857 33.1555 56.8733C33.7995 57.3044 33.9671 58.2544 33.5095 58.8795L31.8699 61.2194ZM50.3611 55.7627C49.8115 56.4404 48.8125 56.5452 48.1342 55.9963L41.2438 50.4204C41.1872 50.3737 41.1219 50.3386 41.0517 50.3173C40.9815 50.2959 40.9077 50.2887 40.8346 50.296C40.7616 50.3033 40.6907 50.325 40.6261 50.3598C40.5615 50.3947 40.5044 50.442 40.4582 50.499C40.412 50.556 40.3776 50.6216 40.3569 50.692C40.3362 50.7624 40.3297 50.8362 40.3377 50.9091C40.3458 50.9821 40.3682 51.0527 40.4037 51.1169C40.4392 51.1811 40.4871 51.2376 40.5446 51.2832L46.5965 56.1806L46.5968 56.1809L46.5989 56.1827C47.2623 56.7215 47.3645 57.6989 46.8264 58.3629C46.3147 59.0218 45.2804 59.13 44.6429 58.5919L37.8319 53.0802C37.7753 53.0335 37.71 52.9984 37.6398 52.9771C37.5696 52.9557 37.4958 52.9485 37.4227 52.9558C37.3497 52.9631 37.2788 52.9848 37.2142 53.0196C37.1496 53.0545 37.0925 53.1018 37.0463 53.1588C37.0001 53.2158 36.9657 53.2814 36.945 53.3518C36.9243 53.4222 36.9178 53.496 36.9259 53.5689C36.9339 53.6419 36.9563 53.7125 36.9918 53.7767C37.0273 53.8409 37.0752 53.8974 37.1327 53.9431L42.2193 58.0593C42.8785 58.5705 42.9875 59.6041 42.4488 60.2412C41.9372 60.9002 40.9029 61.0083 40.2654 60.4703L39.0556 59.4914L39.0553 59.4911L36.6049 57.5082C36.5483 57.4615 36.483 57.4264 36.4128 57.4051C36.3426 57.3837 36.2688 57.3765 36.1957 57.3838C36.1227 57.3911 36.0518 57.4128 35.9872 57.4477C35.9226 57.4825 35.8655 57.5298 35.8193 57.5868C35.7731 57.6438 35.7387 57.7094 35.718 57.7798C35.6973 57.8502 35.6908 57.924 35.6989 57.997C35.7069 58.0699 35.7293 58.1405 35.7648 58.2047C35.8003 58.2689 35.8482 58.3255 35.9057 58.3711L37.9904 60.058L37.9908 60.0585C38.6778 60.6163 38.7836 61.6291 38.2267 62.3164C37.7249 62.9356 36.8889 63.0695 36.3157 62.6156L33.6658 60.5921L34.4197 59.5163C35.2301 58.4094 34.9331 56.7269 33.7928 55.9636C33.3819 55.6755 32.8946 55.5157 32.3927 55.5043L32.3989 55.4954C33.1997 54.3444 32.9163 52.754 31.7659 51.949L31.7525 51.9397C30.8526 51.31 29.6835 51.3431 28.8297 51.9359C28.6687 51.3776 28.321 50.8915 27.8445 50.5585C26.6917 49.7518 25.0967 50.0329 24.2894 51.185L24.1642 51.3636C23.9812 50.901 23.666 50.5024 23.2579 50.2174C22.2483 49.511 20.8997 49.6388 20.0379 50.4552C19.2607 49.9213 18.5688 49.2698 17.9941 48.5216L25.5909 37.3422C26.4905 37.8031 27.4915 38.107 28.5205 38.2238C29.0193 38.2804 29.5233 38.4015 30.0129 38.5585L29.2508 39.0236C28.9285 39.2198 28.6499 39.48 28.4323 39.7882L25.2132 44.3342C24.6243 45.1259 24.9287 46.3539 25.8194 46.7793C28.0662 47.9177 30.8494 47.3255 32.4371 45.3708L34.3383 43.0303L36.9736 42.2429L50.1509 53.5569C50.8061 54.1082 50.9004 55.0975 50.3611 55.7627ZM50.2382 52.1753L37.4674 41.2031C37.3967 41.1424 37.312 41.1005 37.2209 41.0811C37.1298 41.0617 37.0353 41.0655 36.9461 41.0921L33.8556 42.0156C33.7487 42.0476 33.6539 42.111 33.5835 42.1976L31.5743 44.6711C30.3142 46.2223 28.1052 46.6927 26.3218 45.7889C26.0248 45.648 25.9234 45.2386 26.1202 44.9754L29.3393 40.4294C29.4697 40.2446 29.6368 40.0886 29.8301 39.971L35.5443 36.4834C36.5535 35.8673 37.7704 35.7435 38.8832 36.144L42.8995 37.5893C43.8347 37.9268 44.8496 37.9767 45.8134 37.7326L48.9105 36.9514L55.8816 48.9301C54.7729 50.196 52.9414 51.6946 50.2382 52.1753ZM61.4847 46.997L58.1061 48.946C57.7222 49.1675 57.2284 49.0359 57.0054 48.6528L49.6019 35.9311C49.3752 35.5596 49.5147 35.0347 49.8963 34.8251L53.2755 32.8759C53.6528 32.6562 54.1517 32.7823 54.3756 33.1683L61.7796 45.8918C61.8883 46.0785 62.076 46.6615 61.4847 46.997Z" fill="#333333"/>
</svg>
