<svg width="52" height="52" viewBox="0 0 52 52" fill="none" xmlns="http://www.w3.org/2000/svg">
<g clip-path="url(#clip0_1341_9953)">
<path d="M33.5512 15.2342H24.3001L23.9405 14.2198C22.4881 10.1227 18.6001 9.40123 18.2812 9.21527V0L20.1077 0.370805C26.7137 1.71163 31.845 6.82896 33.1805 13.4077L33.5512 15.2342Z" fill="#6AA9FF"/>
<path d="M9.14062 16.7576C9.14062 10.7372 15.1975 9.24148 15.2344 9.21527V0L13.4079 0.370805C5.64606 1.94624 0 8.7688 0 16.7576C0 21.3778 1.87941 25.5672 4.9138 28.6016L10.6133 27.2185L11.3742 22.1412C9.99487 20.762 9.14062 18.8577 9.14062 16.7576Z" fill="#FF641A"/>
<path d="M33.5512 18.2812L33.1805 20.1073C31.6215 27.7855 24.829 33.5156 16.7578 33.5156C12.1377 33.5156 7.94826 31.6367 4.91357 28.602L11.374 22.1416C12.7532 23.5209 14.6575 24.375 16.7578 24.375C22.9216 24.375 24.1769 18.4549 24.2998 18.2812H33.5512Z" fill="#FFE470"/>
<path d="M33.5512 18.2812L33.1805 20.1073C31.6215 27.7855 24.829 33.5156 16.7578 33.5156V24.375C22.9216 24.375 24.177 18.4549 24.2998 18.2812H33.5512ZM39.7109 24.5781H48.8516V50.4766H39.7109V24.5781Z" fill="#FFB64C"/>
<path d="M27.5234 39.8125H36.6641V50.4766H27.5234V39.8125Z" fill="#6AA9FF"/>
<path d="M15.3359 36.7656H24.4766V50.4766H15.3359V36.7656Z" fill="#FFE470"/>
<path d="M3.14844 42.8594H12.2891V50.4766H3.14844V42.8594Z" fill="#FF641A"/>
<path d="M0 48.9531H52V52H0V48.9531Z" fill="#61729B"/>
<path d="M26 48.9531H52V52H26V48.9531Z" fill="#47568C"/>
</g>
<defs>
<clipPath id="clip0_1341_9953">
<rect width="52" height="52" fill="white"/>
</clipPath>
</defs>
</svg>
