<svg width="101" height="15" viewBox="0 0 101 15" fill="none" xmlns="http://www.w3.org/2000/svg">
<g clip-path="url(#clip0_620_162)">
<path d="M20.609 3.82267C19.6692 1.76933 17.8533 0.5 15.8781 0.5H0.905224C0.618509 0.5 0.395508 0.78 0.395508 1.116C0.395508 1.26533 0.443294 1.43333 0.538866 1.54533L3.80424 5.39067C4.09095 5.72667 4.48917 5.91333 4.88738 5.91333H15.4481C16.1967 5.91333 16.8179 6.604 16.8179 7.5C16.8179 8.37733 16.2286 9.10533 15.464 9.10533H8.20054C7.91383 9.10533 7.69083 9.38533 7.69083 9.72133C7.69083 9.88933 7.73861 10.0387 7.83418 10.1507L11.0996 13.996C11.3863 14.3133 11.7845 14.5 12.1827 14.5H15.4799C19.7647 14.5 22.9983 9.14267 20.609 3.82267Z" fill="#EB1700"/>
<path d="M28.5573 4.86802V10.7667H29.8475C31.2174 10.748 32.3165 9.42269 32.3006 7.81735C32.3324 6.23069 31.2811 4.92402 29.9272 4.86802C29.8953 4.86802 29.8794 4.86802 29.8475 4.86802H28.5573ZM29.8475 3.02002C32.2528 3.02002 34.0686 5.14802 34.0686 7.81735C34.0686 10.4867 32.2528 12.6147 29.8475 12.6147H27.0122C26.9007 12.6147 26.8052 12.5027 26.8052 12.372V3.26269C26.8052 3.13202 26.9007 3.02002 27.0122 3.02002H29.8475Z" fill="#EB1700"/>
<path d="M40.2649 10.9719C41.7463 10.9719 42.9568 9.5719 42.9728 7.81723C42.9887 6.06257 41.7781 4.66257 40.2808 4.6439C38.7995 4.6439 37.5889 6.0439 37.573 7.79856C37.573 9.55323 38.7676 10.9719 40.2649 10.9719ZM40.2649 2.7959C42.7975 2.7959 44.7249 5.07323 44.7249 7.81723C44.7249 10.5612 42.7816 12.8199 40.2649 12.8199C37.7482 12.8199 35.8208 10.5612 35.8208 7.79856C35.8208 5.0359 37.7482 2.7959 40.2649 2.7959Z" fill="#EB1700"/>
<path d="M50.8575 10.9719C52.3388 10.9719 53.5494 9.55323 53.5494 7.79856C53.5494 6.0439 52.3388 4.6439 50.8416 4.6439C49.3602 4.6439 48.1496 6.06256 48.1496 7.79856C48.1655 9.55323 49.3602 10.9719 50.8575 10.9719ZM50.8575 2.7959C53.3742 2.7959 55.3016 5.05457 55.3016 7.81723C55.3016 10.5799 53.3742 12.8199 50.8575 12.8199C48.3408 12.8199 46.3975 10.5612 46.3975 7.79856C46.3975 5.0359 48.3248 2.7959 50.8575 2.7959Z" fill="#EB1700"/>
<path d="M61.2109 4.86802H59.395V7.40669H61.2109C61.8003 7.44402 62.294 6.90269 62.3259 6.21202C62.3259 6.19335 62.3259 6.17469 62.3259 6.15602C62.3418 5.46535 61.8799 4.86802 61.2905 4.84935C61.2587 4.86802 61.2268 4.86802 61.2109 4.86802ZM57.627 3.26269C57.627 3.13202 57.7225 3.02002 57.834 3.02002H61.2587C62.8834 3.02002 64.0621 4.42002 64.0621 6.17469C64.0781 7.36935 63.5046 8.45202 62.5967 8.99335L64.1736 12.26C64.2373 12.372 64.2055 12.5214 64.1258 12.596C64.094 12.6334 64.0462 12.6334 63.9984 12.6334H62.6126C62.533 12.6334 62.4693 12.5774 62.4215 12.5027L60.9083 9.27335H59.3791V12.372C59.3791 12.5027 59.2835 12.6147 59.172 12.6147H57.834C57.7225 12.6147 57.627 12.5027 57.627 12.372V3.26269Z" fill="#EB1700"/>
<path d="M68.6496 4.90562V10.8043H69.9398C71.3097 10.7856 72.4088 9.46028 72.3928 7.85495C72.4406 6.26828 71.3734 4.94295 70.0195 4.90562C69.9876 4.90562 69.9558 4.90562 69.9239 4.90562H68.6496ZM69.9398 3.05762C72.3451 3.05762 74.1609 5.18562 74.1609 7.85495C74.1609 10.5243 72.3451 12.6523 69.9398 12.6523H67.1045C66.993 12.6523 66.8975 12.5403 66.8975 12.4096V3.30028C66.8975 3.16962 66.993 3.05762 67.1045 3.05762H69.9398Z" fill="#EB1700"/>
<path d="M79.5133 5.40941L78.5098 8.56408H80.5009L79.5133 5.40941ZM77.9363 10.3374L77.2833 12.4467C77.2514 12.5401 77.1718 12.6147 77.0762 12.6147H75.6585C75.547 12.6334 75.4515 12.5401 75.4355 12.3907C75.4355 12.3534 75.4355 12.2974 75.4515 12.2601L78.5098 3.15075C78.5416 3.05741 78.6213 2.98275 78.7168 3.00141H80.2938C80.3894 3.00141 80.469 3.05741 80.5009 3.15075L83.5591 12.2601C83.6069 12.3721 83.5592 12.5214 83.4636 12.5774C83.4317 12.5961 83.3999 12.5961 83.3521 12.5961H81.9344C81.8389 12.5961 81.7592 12.5401 81.7274 12.4281L81.0743 10.3187H77.9363V10.3374Z" fill="#EB1700"/>
<path d="M85.1994 5.61471C85.1994 4.10271 86.3144 2.79605 88.0666 2.79605C89.0064 2.77738 89.9302 3.16938 90.6152 3.91605C90.6948 4.00938 90.7107 4.15871 90.6311 4.25205C90.6311 4.25205 90.6311 4.25205 90.6152 4.27071L89.8347 5.18538C89.755 5.27871 89.6276 5.27871 89.548 5.18538C89.1816 4.79338 88.6878 4.56938 88.194 4.55071C87.4932 4.55071 86.9675 5.03605 86.9675 5.57738C86.9675 7.36938 91.1249 6.32405 91.1249 9.75871C91.1249 11.4947 89.994 12.82 88.0188 12.82C86.9197 12.8387 85.8525 12.3347 85.0561 11.42C84.9764 11.3267 84.9605 11.1774 85.0402 11.084C85.0402 11.084 85.0402 11.084 85.0561 11.0654L85.8207 10.1694C85.9003 10.076 86.0277 10.076 86.1074 10.1694C86.5852 10.7107 87.2383 11.0094 87.8914 11.028C88.7675 11.028 89.3409 10.4867 89.3409 9.79605C89.3568 8.02271 85.1994 9.04938 85.1994 5.61471Z" fill="#EB1700"/>
<path d="M98.6591 3.24413V6.8468H95.1389V3.24413C95.1389 3.11346 95.0433 3.00146 94.9318 3.00146H93.5938C93.4823 3.00146 93.3867 3.11346 93.3867 3.24413V12.3535C93.3867 12.4841 93.4823 12.5961 93.5938 12.5961H94.9318C95.0433 12.5961 95.1389 12.4841 95.1389 12.3535V8.6948H98.6591V12.3535C98.6591 12.4841 98.7547 12.5961 98.8662 12.5961H100.204C100.316 12.5961 100.411 12.4841 100.411 12.3535V3.24413C100.411 3.11346 100.316 3.00146 100.204 3.00146H98.8662C98.7387 3.00146 98.6591 3.11346 98.6591 3.24413Z" fill="#EB1700"/>
</g>
<defs>
<clipPath id="clip0_620_162">
<rect width="100" height="14" fill="white" transform="translate(0.395508 0.5)"/>
</clipPath>
</defs>
</svg>
