<svg width="64" height="63" viewBox="0 0 64 63" fill="none" xmlns="http://www.w3.org/2000/svg">
<path d="M32 23.1328C31.3631 23.1382 30.7289 23.2168 30.11 23.3671C30.5442 23.7715 30.8926 24.2591 31.1342 24.801C31.3759 25.343 31.5059 25.928 31.5165 26.5213C31.5271 27.1145 31.4181 27.7038 31.196 28.254C30.9739 28.8042 30.6432 29.3041 30.2237 29.7237C29.8042 30.1433 29.3045 30.4741 28.7544 30.6964C28.2042 30.9187 27.615 31.0279 27.0217 31.0175C26.4284 31.007 25.8434 30.8772 25.3014 30.6357C24.7594 30.3943 24.2716 30.0461 23.8671 29.612C23.4774 31.3018 23.623 33.0709 24.2837 34.6743C24.9444 36.2776 26.0874 37.6357 27.5545 38.5604C29.0216 39.485 30.7399 39.9304 32.4714 39.8348C34.2029 39.7392 35.8618 39.1073 37.2181 38.0268C38.5745 36.9462 39.5611 35.4705 40.0413 33.8042C40.5214 32.1379 40.4713 30.3634 39.8979 28.7268C39.3246 27.0902 38.2563 25.6725 36.8412 24.6702C35.426 23.6679 33.7341 23.1306 32 23.1328Z" fill="#2563EB"/>
<path d="M58.1017 27.6727L55.3179 24.887C49.129 18.7114 40.743 15.2431 32 15.2431C23.257 15.2431 14.871 18.7114 8.68211 24.887L5.89829 27.6727C5.39564 28.1753 4.9969 28.772 4.72486 29.4287C4.45282 30.0854 4.31281 30.7892 4.31281 31.5C4.31281 32.2108 4.45282 32.9146 4.72486 33.5713C4.9969 34.228 5.39564 34.8247 5.89829 35.3273L8.68211 38.113C14.8713 44.2881 23.2571 47.7561 32 47.7561C40.7428 47.7561 49.1287 44.2881 55.3179 38.113L58.1017 35.3273C58.6043 34.8247 59.0031 34.228 59.2751 33.5713C59.5471 32.9146 59.6872 32.2108 59.6872 31.5C59.6872 30.7892 59.5471 30.0854 59.2751 29.4287C59.0031 28.772 58.6043 28.1753 58.1017 27.6727ZM32 42.8203C29.8445 42.8218 27.7335 42.2073 25.9156 41.0493C24.0976 39.8913 22.6484 38.2379 21.7386 36.2838C20.8288 34.3298 20.4963 32.1565 20.7803 30.0198C21.0643 27.8831 21.9528 25.8721 23.3414 24.2235C23.6932 23.6661 24.1646 23.194 24.7215 22.8414C26.1145 21.6705 27.7694 20.8528 29.5457 20.4576C31.3221 20.0624 33.1675 20.1015 34.9256 20.5714C36.6836 21.0414 38.3024 21.9284 39.6446 23.1573C40.9869 24.3861 42.0129 25.9205 42.6359 27.6303C43.2588 29.3402 43.4601 31.175 43.2229 32.9793C42.9856 34.7835 42.3168 36.5039 41.273 37.9946C40.2292 39.4853 38.8414 40.7023 37.2271 41.5424C35.6128 42.3824 33.8198 42.8208 32 42.8203ZM32 11.3203C31.6084 11.3203 31.2328 11.1647 30.9559 10.8878C30.679 10.6109 30.5234 10.2354 30.5234 9.84375V5.90625C30.5234 5.51464 30.679 5.13907 30.9559 4.86216C31.2328 4.58525 31.6084 4.42969 32 4.42969C32.3916 4.42969 32.7672 4.58525 33.0441 4.86216C33.321 5.13907 33.4765 5.51464 33.4765 5.90625V9.84375C33.4765 10.2354 33.321 10.6109 33.0441 10.8878C32.7672 11.1647 32.3916 11.3203 32 11.3203ZM43.8105 13.2891C43.5591 13.2887 43.3119 13.2242 43.0924 13.1015C42.8729 12.9789 42.6883 12.8022 42.5562 12.5883C42.4241 12.3744 42.3488 12.1302 42.3375 11.879C42.3261 11.6279 42.3791 11.3779 42.4915 11.153L44.4602 7.21547C44.6369 6.86824 44.9438 6.60494 45.3138 6.48295C45.6838 6.36096 46.0871 6.39016 46.4357 6.5642C46.7842 6.73823 47.0499 7.04299 47.1748 7.41206C47.2997 7.78113 47.2736 8.1846 47.1023 8.53453L45.1335 12.472C45.0108 12.7178 44.822 12.9245 44.5883 13.0688C44.3546 13.2131 44.0852 13.2894 43.8105 13.2891ZM20.1895 13.2891C19.9148 13.2894 19.6454 13.2131 19.4117 13.0688C19.178 12.9245 18.9891 12.7178 18.8665 12.472L16.8977 8.53453C16.7264 8.1846 16.7003 7.78113 16.8252 7.41206C16.95 7.04299 17.2157 6.73823 17.5643 6.5642C17.9129 6.39016 18.3161 6.36096 18.6862 6.48295C19.0562 6.60494 19.363 6.86824 19.5398 7.21547L21.5085 11.153C21.6209 11.3781 21.6739 11.6282 21.6625 11.8795C21.651 12.1309 21.5756 12.3751 21.4432 12.5891C21.3109 12.8031 21.1261 12.9798 20.9063 13.1023C20.6865 13.2247 20.4391 13.2891 20.1875 13.2891H20.1895ZM32 58.5703C31.6084 58.5703 31.2328 58.4147 30.9559 58.1378C30.679 57.8609 30.5234 57.4854 30.5234 57.0938V53.1562C30.5234 52.7646 30.679 52.3891 30.9559 52.1122C31.2328 51.8353 31.6084 51.6797 32 51.6797C32.3916 51.6797 32.7672 51.8353 33.0441 52.1122C33.321 52.3891 33.4765 52.7646 33.4765 53.1562V57.0938C33.4765 57.4854 33.321 57.8609 33.0441 58.1378C32.7672 58.4147 32.3916 58.5703 32 58.5703ZM45.7832 56.6016C45.5085 56.6019 45.2392 56.5256 45.0054 56.3813C44.7717 56.237 44.5829 56.0303 44.4602 55.7845L42.4915 51.847C42.3201 51.4971 42.2941 51.0936 42.4189 50.7246C42.5438 50.3555 42.8095 50.0507 43.1581 49.8767C43.5067 49.7027 43.9099 49.6735 44.2799 49.7955C44.65 49.9174 44.9568 50.1807 45.1335 50.528L47.1023 54.4655C47.2146 54.6906 47.2676 54.9407 47.2562 55.192C47.2448 55.4434 47.1693 55.6876 47.037 55.9016C46.9047 56.1156 46.7198 56.2923 46.5001 56.4148C46.2803 56.5373 46.0348 56.6016 45.7832 56.6016ZM18.2168 56.6016C17.9653 56.6012 17.7181 56.5367 17.4986 56.414C17.2791 56.2914 17.0946 56.1147 16.9624 55.9008C16.8303 55.6869 16.755 55.4427 16.7437 55.1915C16.7324 54.9404 16.7854 54.6904 16.8977 54.4655L18.8665 50.528C19.0432 50.1807 19.35 49.9174 19.72 49.7955C20.0901 49.6735 20.4933 49.7027 20.8419 49.8767C21.1905 50.0507 21.4562 50.3555 21.581 50.7246C21.7059 51.0936 21.6798 51.4971 21.5085 51.847L19.5398 55.7845C19.4171 56.0303 19.2282 56.237 18.9945 56.3813C18.7608 56.5256 18.4915 56.6019 18.2168 56.6016Z" fill="#2563EB"/>
</svg>
