<svg width="14" height="17" viewBox="0 0 14 17" fill="none" xmlns="http://www.w3.org/2000/svg">
<g clip-path="url(#clip0_620_175)">
<path d="M4.84795 1.96318C4.97235 1.64093 5.1434 1.34426 5.39739 1.10385C6.41334 0.126867 8.09276 0.372392 8.78216 1.60001C9.3005 2.53096 9.84994 3.44145 10.3838 4.36216C11.2754 5.89157 12.1773 7.42099 13.0585 8.95551C13.7997 10.2394 12.9963 11.8609 11.5242 12.0808C10.6223 12.2138 9.77737 11.8046 9.31087 11.0067C8.52817 9.66139 7.74029 8.31613 6.9576 6.97597C6.94205 6.94528 6.92131 6.91971 6.90058 6.89413C6.81764 6.82763 6.78136 6.73045 6.72953 6.64349C6.38224 6.03991 6.02458 5.44145 5.67729 4.84298C5.45441 4.45423 5.22115 4.0706 4.99827 3.68185C4.79611 3.33403 4.70281 2.95551 4.71318 2.55653C4.72873 2.35193 4.75465 2.14733 4.84795 1.96318Z" fill="#3C8BD9"/>
<path d="M4.84797 1.96289C4.80132 2.14703 4.75985 2.33118 4.74949 2.52555C4.73394 2.95522 4.84279 3.35419 5.06049 3.7276C5.63067 4.69435 6.20084 5.66622 6.76583 6.63808C6.81767 6.72504 6.85914 6.812 6.91097 6.89384C6.59996 7.42581 6.28896 7.95266 5.97277 8.48463C5.53736 9.22632 5.10196 9.97312 4.66137 10.7148C4.64063 10.7148 4.63545 10.7046 4.63027 10.6892C4.62508 10.6483 4.64063 10.6125 4.651 10.5716C4.86352 9.80432 4.68729 9.12402 4.15339 8.5409C3.82684 8.18795 3.41217 7.98847 2.93529 7.92197C2.31328 7.83501 1.76384 7.99358 1.27142 8.37721C1.1833 8.44371 1.12628 8.5409 1.02261 8.59205C1.00188 8.59205 0.991512 8.58182 0.986328 8.56647C1.23513 8.14192 1.47875 7.71737 1.72756 7.29281C2.75387 5.53322 3.78019 3.77363 4.81169 2.01916C4.82205 1.9987 4.8376 1.98335 4.84797 1.96289Z" fill="#FABC04"/>
<path d="M1.00722 8.5821C1.10571 8.49515 1.19901 8.40308 1.30268 8.32123C2.56225 7.33914 4.45419 8.05014 4.72891 9.60512C4.7963 9.97852 4.76001 10.3366 4.64598 10.6946C4.64079 10.7253 4.63561 10.7509 4.62524 10.7816C4.57859 10.8634 4.53713 10.9504 4.48529 11.0322C4.02397 11.7842 3.34494 12.1576 2.45339 12.1013C1.43226 12.0297 0.628833 11.2726 0.488881 10.2701C0.421496 9.78415 0.519981 9.32891 0.773968 8.90947C0.825802 8.8174 0.888003 8.73556 0.945021 8.64349C0.970938 8.62303 0.960571 8.5821 1.00722 8.5821Z" fill="#34A852"/>
<path d="M1.00704 8.58198C0.986308 8.60244 0.986308 8.63825 0.950024 8.64336C0.944841 8.60756 0.965575 8.5871 0.986308 8.56152L1.00704 8.58198Z" fill="#FABC04"/>
<path d="M4.62529 10.7813C4.60455 10.7455 4.62529 10.7199 4.64602 10.6943C4.6512 10.6995 4.66157 10.7097 4.66675 10.7148L4.62529 10.7813Z" fill="#E1C025"/>
<path d="M1.46847 13.8198C0.882749 13.8198 0.395508 14.2853 0.395508 14.8582C0.395508 15.4311 0.882749 15.8914 1.46847 15.8914C1.78466 15.8914 2.01792 15.7891 2.20452 15.5999C2.39631 15.4106 2.45332 15.1497 2.45332 14.94C2.45332 14.8735 2.44814 14.8122 2.43777 14.761H1.46847V15.0423H2.15787C2.13713 15.2009 2.0853 15.3185 2.00237 15.4004C1.90388 15.4976 1.7432 15.6101 1.46847 15.6101C1.04343 15.6101 0.711696 15.2725 0.711696 14.8582C0.711696 14.4439 1.04343 14.1063 1.46847 14.1063C1.69654 14.1063 1.8676 14.1932 1.98682 14.3109L2.18897 14.1114C2.01792 13.9477 1.78985 13.8198 1.46847 13.8198ZM3.22565 14.5615C2.85763 14.5615 2.55181 14.8428 2.55181 15.2367C2.55181 15.6255 2.85245 15.9119 3.22565 15.9119C3.59886 15.9119 3.89949 15.6255 3.89949 15.2367C3.89949 14.848 3.59367 14.5615 3.22565 14.5615ZM3.22565 15.6459C3.0235 15.6459 2.84726 15.4771 2.84726 15.2367C2.84726 14.9963 3.0235 14.8275 3.22565 14.8275C3.4278 14.8275 3.60404 14.9912 3.60404 15.2367C3.60404 15.4771 3.4278 15.6459 3.22565 15.6459ZM4.68737 14.5615C4.31417 14.5615 4.01353 14.8428 4.01353 15.2367C4.01353 15.6255 4.31417 15.9119 4.68737 15.9119C5.0554 15.9119 5.36122 15.6255 5.36122 15.2367C5.36122 14.848 5.06058 14.5615 4.68737 14.5615ZM4.68737 15.6459C4.48522 15.6459 4.30898 15.4771 4.30898 15.2367C4.30898 14.9963 4.48522 14.8275 4.68737 14.8275C4.88953 14.8275 5.06576 14.9912 5.06576 15.2367C5.06576 15.4771 4.89471 15.6459 4.68737 15.6459ZM6.14391 14.5615C5.80699 14.5615 5.50117 14.8531 5.50117 15.2316C5.50117 15.605 5.80699 15.8966 6.14391 15.8966C6.3046 15.8966 6.429 15.8249 6.49638 15.7431H6.50675V15.8403C6.50675 16.096 6.37198 16.2341 6.1491 16.2341C5.96768 16.2341 5.85883 16.1063 5.81217 15.9989L5.553 16.1063C5.62557 16.2853 5.82254 16.5001 6.1491 16.5001C6.49638 16.5001 6.78666 16.2955 6.78666 15.8045V14.6075H6.50675V14.715H6.49638C6.429 14.6331 6.3046 14.5615 6.14391 14.5615ZM6.16983 15.6357C5.96768 15.6357 5.79662 15.4669 5.79662 15.2316C5.79662 14.9963 5.96768 14.8224 6.16983 14.8224C6.37198 14.8224 6.52749 14.9963 6.52749 15.2316C6.52749 15.4669 6.37198 15.6357 6.16983 15.6357ZM7.00436 13.9017H7.29981V15.8761H7.00436V13.9017ZM8.09288 14.5615C7.7404 14.5615 7.44495 14.8326 7.44495 15.2367C7.44495 15.6152 7.73522 15.9119 8.12398 15.9119C8.44016 15.9119 8.62158 15.7226 8.69415 15.6152L8.4609 15.4618C8.38315 15.5743 8.2743 15.6459 8.12398 15.6459C7.96847 15.6459 7.85962 15.5794 7.79224 15.4413L8.7097 15.0679L8.6786 14.9912C8.62158 14.8428 8.44535 14.5615 8.09288 14.5615ZM7.7404 15.2162C7.73004 14.9554 7.94774 14.8224 8.09806 14.8224C8.21728 14.8224 8.32095 14.8786 8.35205 14.9656L7.7404 15.2162Z" fill="#757575"/>
<path d="M9.22803 15.8452L9.91224 14.0498H10.1766L10.8608 15.8452H10.6016L10.4254 15.3593H9.66343L9.4872 15.8452H9.22803ZM9.74119 15.1444H10.3476L10.0522 14.3363H10.0418L9.74119 15.1444Z" fill="#757575"/>
<path d="M11.0993 15.6969C10.9852 15.569 10.9282 15.4155 10.9282 15.2314C10.9282 15.0524 10.9852 14.8989 11.0993 14.7659C11.2185 14.638 11.3533 14.5767 11.5191 14.5767C11.6124 14.5767 11.6954 14.5971 11.7679 14.6329C11.8457 14.6738 11.9027 14.7199 11.9442 14.7864H11.9545L11.9442 14.6176V14.0498H12.1774V15.8452H11.9545V15.6764H11.9442C11.9027 15.7378 11.8457 15.7889 11.7679 15.8299C11.6902 15.8708 11.6073 15.8861 11.5191 15.8861C11.3533 15.8861 11.2133 15.8247 11.0993 15.6969ZM11.8353 15.5536C11.9131 15.4718 11.9494 15.3644 11.9494 15.2314C11.9494 15.1035 11.9131 14.9961 11.8353 14.9143C11.7628 14.8324 11.6695 14.7915 11.5554 14.7915C11.4414 14.7915 11.3481 14.8324 11.2755 14.9143C11.1978 14.9961 11.1615 15.1035 11.1615 15.2314C11.1615 15.3593 11.1978 15.4667 11.2755 15.5485C11.3533 15.6304 11.4466 15.6713 11.5554 15.6713C11.6695 15.6764 11.7628 15.6355 11.8353 15.5536Z" fill="#757575"/>
<path d="M13.2553 15.7736C13.162 15.8452 13.0428 15.8861 12.8977 15.8861C12.7733 15.8861 12.6644 15.8554 12.5659 15.7889C12.4726 15.7224 12.4052 15.6406 12.3638 15.5332L12.5711 15.4462C12.6022 15.5178 12.6437 15.5792 12.7059 15.6201C12.7629 15.6611 12.8303 15.6815 12.8977 15.6815C12.9702 15.6815 13.0324 15.6662 13.0843 15.6355C13.1361 15.6048 13.1568 15.5639 13.1568 15.523C13.1568 15.4462 13.0946 15.3848 12.9754 15.349L12.7629 15.2979C12.5193 15.2365 12.4001 15.124 12.4001 14.9501C12.4001 14.8375 12.4467 14.7506 12.54 14.679C12.6333 14.6125 12.7525 14.5767 12.8925 14.5767C13.0013 14.5767 13.0998 14.6022 13.1931 14.6534C13.2812 14.7045 13.3434 14.7761 13.3797 14.8631L13.1724 14.9501C13.1465 14.8989 13.1102 14.858 13.0583 14.8273C13.0065 14.7966 12.9443 14.7813 12.8769 14.7813C12.8147 14.7813 12.7629 14.7966 12.7111 14.8273C12.6644 14.858 12.6385 14.8938 12.6385 14.9398C12.6385 15.0114 12.7059 15.0626 12.8406 15.0882L13.0272 15.1342C13.2761 15.1956 13.3953 15.3183 13.3953 15.5025C13.4005 15.6099 13.3486 15.702 13.2553 15.7736Z" fill="#757575"/>
</g>
<defs>
<clipPath id="clip0_620_175">
<rect width="13" height="16" fill="white" transform="translate(0.395508 0.5)"/>
</clipPath>
</defs>
</svg>
