<svg width="52" height="13" viewBox="0 0 52 13" fill="none" xmlns="http://www.w3.org/2000/svg">
<path fill-rule="evenodd" clip-rule="evenodd" d="M18.6244 12.1361C17.1809 12.1361 16.398 11.3999 16.398 10.0258V6.00165H15.8964C15.6518 6.00165 15.4316 5.9035 15.2603 5.73173C15.089 5.55997 15.0034 5.32686 15.0034 5.09375C15.0157 4.61527 15.4071 4.23494 15.8964 4.23494H16.398V3.03259C16.4347 2.49276 16.8873 2.08789 17.4378 2.08789C17.976 2.08789 18.4286 2.50503 18.4776 3.03259V4.23494H19.2849C19.7743 4.2472 20.1535 4.63981 20.1535 5.11829C20.1535 5.59678 19.7743 5.98938 19.2849 6.00165H18.4776V9.48599C18.4776 10.0994 18.869 10.3325 19.1871 10.3325H19.3706C19.9578 10.3325 20.2758 10.7129 20.2758 11.2159C20.2758 11.7189 19.97 12.1361 18.6244 12.1361Z" fill="#FF4C00"/>
<path d="M25.1201 12.1351C22.5389 12.1351 20.9854 10.2825 20.9854 8.0741C20.9854 5.89025 22.5512 4.02539 25.1201 4.02539C27.7135 4.02539 29.267 5.87798 29.267 8.0741C29.267 10.2825 27.7135 12.1351 25.1201 12.1351ZM25.1201 5.84118C23.8356 5.84118 23.1261 6.88403 23.1261 8.0741C23.1261 9.28872 23.8356 10.3316 25.1201 10.3316C26.4045 10.3316 27.1263 9.28872 27.1263 8.0741C27.1263 6.88403 26.3923 5.84118 25.1201 5.84118Z" fill="#FF4C00"/>
<path d="M36.5455 12.0492H36.3865C36.2274 12.0492 35.4935 11.9265 35.4935 11.1536C34.9552 11.7793 34.0377 12.1474 33.0102 12.1474C31.7624 12.1474 30.2822 11.3131 30.2822 9.59544C30.2822 7.79192 31.7624 7.10487 33.0102 7.10487C34.05 7.10487 34.9674 7.43612 35.4935 8.04957V6.99445C35.4935 6.20924 34.8084 5.70622 33.7808 5.70622C33.157 5.69395 32.5453 5.86571 32.0315 6.19697C31.9214 6.27059 31.7869 6.30739 31.6645 6.30739C31.2364 6.29512 30.8816 5.9516 30.8816 5.52219C30.8816 5.38723 30.9183 5.24 30.9917 5.11732C31.4811 4.35665 33.2304 4.02539 34.1356 4.02539C35.9216 4.02539 37.5608 4.72471 37.5608 6.94537V11.0432C37.5486 11.583 37.1082 12.0369 36.5455 12.0492ZM35.4935 9.12922C35.1509 8.68755 34.5026 8.45444 33.842 8.45444C33.0346 8.45444 32.3618 8.85931 32.3618 9.61998C32.3618 10.3438 33.0224 10.761 33.842 10.761C34.5026 10.761 35.1509 10.5401 35.4935 10.0862V9.12922Z" fill="#FF4C00"/>
<path fill-rule="evenodd" clip-rule="evenodd" d="M42.4171 12.1355C41.4018 12.1355 39.7626 11.8043 39.2733 11.1049C39.1754 10.9822 39.1265 10.835 39.1265 10.6755C39.1387 10.2093 39.5179 9.84124 39.9828 9.82897C40.1296 9.82897 40.2764 9.86578 40.3987 9.95166C41.0103 10.3075 41.8299 10.5774 42.5028 10.5774C43.3958 10.5774 43.8117 10.2216 43.8117 9.74309C43.8117 8.46713 39.1632 9.49771 39.1632 6.46731C39.1632 5.17909 40.3131 4.03809 42.3682 4.03809C43.3835 4.03809 44.7781 4.35708 45.2185 4.98279C45.3041 5.0932 45.353 5.24043 45.353 5.37539C45.3408 5.8048 44.9738 6.14832 44.5456 6.14832C44.4111 6.14832 44.2765 6.11152 44.1542 6.05017C43.6159 5.74345 43.0043 5.58396 42.3804 5.58396C41.6342 5.58396 41.1449 5.91522 41.1449 6.35689C41.1449 7.51016 45.7812 6.5532 45.7812 9.66948C45.8056 11.0681 44.5823 12.1355 42.4171 12.1355Z" fill="#FF4C00"/>
<path fill-rule="evenodd" clip-rule="evenodd" d="M49.953 12.1361C48.5095 12.1361 47.7266 11.3999 47.7266 10.0258V6.00165H47.225C46.9804 6.00165 46.7602 5.9035 46.5889 5.73173C46.4177 5.55997 46.332 5.32686 46.332 5.09375C46.3443 4.61527 46.7357 4.23494 47.225 4.23494H47.7266V3.03259C47.7633 2.49276 48.2159 2.08789 48.7664 2.08789C49.3046 2.08789 49.7572 2.50503 49.8062 3.03259V4.23494H50.6136C51.1029 4.2472 51.4821 4.63981 51.4821 5.11829C51.4821 5.59678 51.1029 5.98938 50.6136 6.00165H49.8062V9.48599C49.8062 10.0994 50.1976 10.3325 50.5157 10.3325H50.6992C51.2864 10.3325 51.6044 10.7129 51.6044 11.2159C51.6044 11.7189 51.2986 12.1361 49.953 12.1361Z" fill="#FF4C00"/>
<path d="M13.6944 8.95772C13.7066 8.0989 13.67 7.25235 13.5843 6.39354C13.5232 5.8169 13.3274 5.08077 12.7035 4.93355C12.7892 4.95808 12.8626 4.94581 12.9482 4.92128C13.67 4.54094 13.6088 3.60851 13.3641 2.946C13.0338 2.06264 12.2387 1.43693 11.4436 1.03206C8.60552 -0.45247 4.82555 -0.329781 2.08537 1.36332C1.36363 1.80499 0.544023 2.66381 0.911011 3.63305C1.00887 3.86616 1.15567 4.087 1.33916 4.27103C1.42479 4.35691 1.60829 4.55321 1.60829 4.55321C1.2413 5.05623 0.972176 5.49791 0.800915 6.11135C0.274899 7.92714 0.360529 9.10495 0.507325 10.5649C0.592955 11.4728 0.898778 12.8224 1.93858 12.9696C2.79488 13.0923 3.71235 12.8101 4.55642 12.712C5.49836 12.6016 6.44029 12.4298 7.38223 12.4543C8.71562 12.4911 10.0368 12.8101 11.3824 12.8224C12.0919 12.8347 13.2663 12.896 13.4742 11.9636C13.67 11.0802 13.6822 10.1601 13.6822 9.25217C13.6944 9.15402 13.6944 9.05587 13.6944 8.95772ZM12.1653 10.4913C11.835 11.2397 10.8931 11.1538 10.2325 11.1048C9.25387 11.0189 8.28746 10.7858 7.2966 10.749C6.42806 10.7244 5.55952 10.8839 4.71545 11.0802C4.07934 11.2152 3.19857 11.5833 2.62362 11.0925C1.98751 10.5527 1.87741 9.63251 1.86518 8.85957C1.87741 8.16025 1.95081 7.44866 2.07314 6.7616C2.14654 6.33219 2.2811 5.91505 2.45236 5.51018C2.68479 4.93355 3.01507 4.57775 3.03954 4.60229C2.86828 4.43052 2.66032 4.33237 2.55022 4.087C2.10984 3.1791 3.19857 2.40617 3.79798 2.13625C5.87758 1.20382 8.78901 1.2897 10.7585 2.49205C11.3702 2.86011 12.5568 4.14834 11.4436 4.78632C12.1286 5.10531 12.2999 6.08682 12.3855 6.78614C12.5078 7.9026 12.4711 9.03133 12.2754 10.1355C12.2509 10.2582 12.2142 10.3809 12.1653 10.4913Z" fill="#FF4C00"/>
</svg>
