<svg width="35" height="44" viewBox="0 0 35 44" fill="none" xmlns="http://www.w3.org/2000/svg">
<path d="M33.7656 35.7185C32.7989 32.8413 28.9459 31.0404 26.1989 29.8332C25.1227 29.3618 22.1434 28.5621 21.7853 27.2071C21.6571 26.7189 21.6744 26.2586 21.7795 25.8175C21.6124 25.8504 21.4425 25.8672 21.2722 25.8679H19.4822C18.7955 25.8671 18.137 25.594 17.6514 25.1083C17.1659 24.6226 16.8928 23.9641 16.8922 23.2773C16.8922 21.8503 18.0538 20.6901 19.4822 20.6901H21.2722C21.8635 20.6901 22.4242 20.8903 22.8763 21.2474C23.5197 21.1626 24.1548 21.0235 24.7747 20.8317C25.5576 19.1916 26.1682 17.2303 26.305 15.5421C26.8891 8.31911 22.4611 4.09319 16.1122 4.82375C11.496 5.35511 8.7384 8.79719 8.44032 13.2285C8.13888 17.7453 9.8136 21.0814 11.5925 23.5284C12.3715 24.5983 13.1899 25.2861 13.0642 26.5754C12.9182 28.0999 11.2882 28.5247 10.1222 28.9932C8.7408 29.5481 7.2528 30.39 6.55008 30.7793C4.12944 32.1161 1.47264 33.726 0.875519 35.9282C-0.446881 40.8089 4.01904 42.2873 7.70592 42.9698C10.8701 43.5535 14.4379 43.5996 17.3726 43.5996C22.681 43.5996 32.2262 43.3869 33.7656 39.3967C34.2034 38.2644 34.0157 36.4601 33.7656 35.7185Z" fill="#2563EB"/>
<path d="M22.405 22.5481C22.2824 22.3594 22.1147 22.2042 21.9171 22.0967C21.7194 21.9892 21.4981 21.9326 21.2731 21.9322H19.4832C19.3031 21.9274 19.1239 21.9587 18.9561 22.0243C18.7883 22.0899 18.6354 22.1885 18.5063 22.3141C18.3772 22.4398 18.2746 22.5901 18.2046 22.7561C18.1345 22.922 18.0984 23.1004 18.0984 23.2805C18.0984 23.4607 18.1345 23.639 18.2046 23.805C18.2746 23.971 18.3772 24.1212 18.5063 24.2469C18.6354 24.3726 18.7883 24.4711 18.9561 24.5367C19.1239 24.6023 19.3031 24.6337 19.4832 24.6289H21.2731C21.5194 24.6287 21.7608 24.5605 21.9707 24.4318C22.1807 24.3032 22.3511 24.119 22.463 23.8997C24.9586 23.7034 27.1291 22.9412 28.6526 21.8156C29.0026 22.0412 29.4163 22.1732 29.8627 22.1732H29.975C30.2708 22.1732 30.5636 22.115 30.8368 22.0018C31.11 21.8886 31.3582 21.7226 31.5672 21.5134C31.7762 21.3042 31.9419 21.0558 32.0548 20.7825C32.1677 20.5092 32.2257 20.2163 32.2253 19.9205V15.4239C32.2254 14.9992 32.1049 14.5832 31.8778 14.2242C31.6508 13.8653 31.3265 13.5782 30.9427 13.3964C30.6125 6.17573 24.635 0.399414 17.3333 0.399414C10.0315 0.399414 4.05312 6.17573 3.72432 13.3964C3.34023 13.578 3.01565 13.865 2.78841 14.2239C2.56116 14.5829 2.44061 14.999 2.4408 15.4239V19.9205C2.44042 20.2161 2.49828 20.5088 2.61108 20.782C2.72389 21.0552 2.88941 21.3035 3.09821 21.5127C3.307 21.7219 3.55497 21.8879 3.82795 22.0012C4.10092 22.1146 4.39355 22.173 4.68912 22.1732H4.80288C5.09854 22.1731 5.3913 22.1148 5.66441 22.0015C5.93753 21.8883 6.18564 21.7223 6.39458 21.5131C6.60351 21.3039 6.76917 21.0555 6.88208 20.7823C6.995 20.509 7.05295 20.2162 7.05264 19.9205V15.4239C7.05242 15.0051 6.93507 14.5948 6.71385 14.2392C6.49263 13.8836 6.17637 13.597 5.8008 13.4117C6.12192 7.32773 11.1706 2.47829 17.3333 2.47829C23.4936 2.47829 28.5446 7.32773 28.8643 13.4117C28.4891 13.5973 28.1732 13.8841 27.9523 14.2396C27.7314 14.5951 27.6142 15.0053 27.6139 15.4239V19.9205C27.6139 20.2191 27.672 20.497 27.7742 20.7567C26.4629 21.6951 24.5539 22.3637 22.405 22.5481Z" fill="#2563EB"/>
</svg>
