<svg width="52" height="52" viewBox="0 0 52 52" fill="none" xmlns="http://www.w3.org/2000/svg">
<g clip-path="url(#clip0_504_18136)">
<path d="M50.4928 32.1923C50.4908 32.1892 50.4878 32.1862 50.4857 32.1821C49.3889 30.7216 47.319 30.4129 45.8464 31.4803C45.7498 31.2692 45.631 31.069 45.4919 30.8831L45.4239 30.7927C44.8896 30.0787 44.1066 29.6156 43.2199 29.4887C42.3323 29.3617 41.4507 29.5872 40.7378 30.1224L35.9846 33.6832C35.7571 33.6344 35.5205 33.607 35.2778 33.607H21.7831C20.5502 33.607 19.4594 33.7502 18.2467 34.0712L12.0585 35.7033L12.0311 33.3216C12.0286 33.1078 11.9419 32.9035 11.7898 32.7532C11.6377 32.6028 11.4325 32.5184 11.2186 32.5183H0.781042C0.563698 32.5183 0.355495 32.6056 0.203151 32.76C0.0508074 32.9144 -0.0334895 33.1236 -0.0314583 33.3409L0.175729 51.1956C0.178267 51.4095 0.264973 51.6137 0.417058 51.7641C0.569142 51.9145 0.774355 51.9989 0.988229 51.999H11.4258C11.6432 51.999 11.8514 51.9116 12.0037 51.7573C12.156 51.6029 12.2403 51.3937 12.2383 51.1763L12.2261 50.115H29.0672C31.8734 50.115 34.8502 49.79 37.6086 47.4327L49.9251 36.922C51.3551 35.7033 51.6273 33.7086 50.5589 32.2796L50.4928 32.1923ZM1.79159 50.375L1.60268 34.1453H10.4153L10.6042 50.375H1.79159ZM41.7138 31.4224C42.0794 31.1472 42.5334 31.0324 42.9904 31.0974C43.4474 31.1624 43.8496 31.4001 44.1249 31.7677L44.1929 31.8591C44.3382 32.0531 44.4357 32.2695 44.4844 32.499L38.6242 36.8885C38.607 35.9582 38.2068 35.1193 37.5751 34.5231L41.7138 31.4224ZM48.8699 35.688L36.5524 46.1998C34.3261 48.102 31.9496 48.492 29.0662 48.492H12.2068L12.0768 37.3486C12.1489 37.3496 12.2221 37.3415 12.2952 37.3222L18.6601 35.6434C19.7468 35.3559 20.6802 35.233 21.7811 35.233H35.2767C36.2264 35.233 36.9982 36.0039 36.9982 36.9515V37.2653C36.9982 37.7508 36.7961 38.1895 36.4711 38.5013C36.4508 38.5186 36.4315 38.5359 36.4132 38.5541C36.1096 38.8202 35.7124 38.9827 35.2767 38.9827H23.6367C23.1878 38.9827 22.8242 39.3463 22.8242 39.7952C22.8242 40.2441 23.1878 40.6077 23.6367 40.6077H35.2788C36.138 40.6077 36.9241 40.2817 37.5172 39.7475L46.7757 32.8128C47.5333 32.2441 48.6119 32.3974 49.1837 33.153L49.2487 33.2424C49.2507 33.2455 49.2538 33.2485 49.2558 33.2516C49.8053 33.9859 49.6397 35.033 48.8699 35.688ZM6.10495 45.2248C4.99385 45.2248 4.09096 46.1277 4.09096 47.2377C4.09096 48.3488 4.99487 49.2537 6.10495 49.2537C7.21503 49.2537 8.11995 48.3498 8.11995 47.2377C8.11893 46.1277 7.21503 45.2248 6.10495 45.2248ZM6.10495 47.6287C5.89065 47.6287 5.71596 47.453 5.71596 47.2377C5.71596 47.0234 5.89065 46.8498 6.10495 46.8498C6.32026 46.8498 6.49495 47.0234 6.49495 47.2377C6.49393 47.453 6.31924 47.6287 6.10495 47.6287ZM45.7905 16.9183C46.7239 15.863 47.2926 14.4727 47.2926 12.9502C47.2926 9.65961 44.6408 6.98141 41.3807 6.98141C38.1205 6.98141 35.4687 9.65859 35.4687 12.9502C35.4687 14.4716 36.0364 15.861 36.9688 16.9162C36.2467 17.0198 35.5489 17.2341 34.8817 17.5561C34.402 17.4458 33.9114 17.3899 33.4192 17.3895C32.1923 17.3895 30.6171 17.1712 29.8909 16.1627V15.6457C30.9299 14.7702 31.6682 13.5525 31.9333 12.1682H32.1771C33.1094 12.1682 33.8691 11.4095 33.8691 10.4772V8.73539C33.8691 8.01531 33.4151 7.40086 32.7793 7.15711V5.42141C32.7793 2.43242 30.3449 0 27.3518 0H24.6513C22.5276 0 21.6501 1.06945 21.2936 2.07289C19.9926 3.1007 19.2238 4.67086 19.2238 6.32836V7.15305C18.5819 7.39273 18.1228 8.01125 18.1228 8.73539V10.4772C18.1228 11.4095 18.8815 12.1682 19.8149 12.1682H20.0708C20.3349 13.5515 21.0732 14.7682 22.1102 15.6437V16.1627C21.384 17.1702 19.8078 17.3895 18.5819 17.3895C18.0792 17.3895 17.5896 17.4484 17.1194 17.5571C16.4593 17.24 15.7549 17.025 15.0303 16.9193C15.9636 15.8641 16.5324 14.4737 16.5324 12.9512C16.5324 9.66062 13.8806 6.98242 10.6204 6.98242C7.36229 6.98242 4.71151 9.65961 4.71151 12.9512C4.71151 14.4737 5.28026 15.8641 6.2126 16.9193C2.69143 17.4281 -0.0314583 20.5004 -0.0314583 24.183V28.2425C-0.0314583 28.6914 0.332135 29.055 0.781042 29.055H51.22C51.6689 29.055 52.0325 28.6914 52.0325 28.2425V24.183C52.0315 20.5024 49.3127 17.4302 45.7905 16.9183ZM41.3817 8.60641C43.745 8.60641 45.6686 10.5554 45.6686 12.9502C45.6686 15.3441 43.746 17.291 41.3817 17.291C39.0173 17.291 37.0947 15.3441 37.0947 12.9502C37.0947 10.5544 39.0173 8.60641 41.3817 8.60641ZM26 17.8923L24.8727 16.9599C25.2383 17.029 25.6151 17.0666 26 17.0666C26.3849 17.0666 26.7617 17.029 27.1274 16.9599L26 17.8923ZM23.0466 17.5602L24.6909 18.9191L23.6031 19.7427L22.6881 17.877C22.8201 17.7734 22.9389 17.6678 23.0466 17.5602ZM26 20.5319C25.8132 20.5319 25.6425 20.4537 25.5237 20.3267L26 19.9662L26.4774 20.3267C26.4159 20.3916 26.3419 20.4432 26.2598 20.4785C26.1778 20.5138 26.0894 20.5319 26 20.5319ZM27.3092 18.9191L28.9535 17.5602C29.0665 17.6729 29.1862 17.7787 29.312 17.877L28.3969 19.7427L27.3092 18.9191ZM32.2441 10.4772C32.2441 10.5117 32.2126 10.5432 32.1771 10.5432H32.041V8.66937H32.1771C32.2126 8.66937 32.2441 8.69984 32.2441 8.73539V10.4772ZM22.4606 3.22867C22.615 3.11935 22.7264 2.95948 22.7754 2.77672C22.9359 2.17852 23.2751 1.625 24.6513 1.625H27.3518C29.4481 1.625 31.1543 3.3282 31.1543 5.42141V6.15062C28.731 6.13437 26.9253 5.3432 24.9671 4.15898C24.7803 4.04625 24.5558 4.01273 24.3446 4.06758C24.1333 4.12242 23.9525 4.25953 23.8428 4.44844C23.1573 5.6357 22.2869 6.13234 20.8539 6.15062C20.9097 4.9918 21.4998 3.90914 22.4606 3.22867ZM19.7478 10.4772V8.73539C19.7478 8.70086 19.7793 8.66937 19.8149 8.66937H19.9621V10.5422H19.8149C19.7783 10.5422 19.7478 10.5117 19.7478 10.4772ZM21.5861 11.0358V7.72992C22.9481 7.57047 23.9932 6.99055 24.7975 5.94242C26.8176 7.07891 28.532 7.63242 30.416 7.75227V11.0358C30.416 13.4662 28.4345 15.4426 26 15.4426C23.5666 15.4426 21.5861 13.4652 21.5861 11.0358ZM10.6184 8.60641C12.9817 8.60641 14.9053 10.5554 14.9053 12.9502C14.9053 15.3441 12.9828 17.291 10.6184 17.291C8.25604 17.291 6.33448 15.3441 6.33448 12.9502C6.33448 10.5544 8.25706 8.60641 10.6184 8.60641ZM1.59354 24.183C1.59354 21.0559 4.10823 18.4915 7.19167 18.4661H8.37284C9.0655 18.7545 9.82417 18.915 10.6194 18.915C11.4146 18.915 12.1733 18.7545 12.867 18.4661H14.0431C14.3244 18.4681 14.6047 18.4945 14.882 18.5402C13.1727 19.7184 12.0494 21.6877 12.0494 23.9159V27.43H5.47323V25.9187C5.47323 25.4698 5.10964 25.1062 4.66073 25.1062C4.21182 25.1062 3.84823 25.4698 3.84823 25.9187V27.43H1.59354V24.183ZM13.6734 23.9159C13.6734 21.2134 15.8742 19.0135 18.5799 19.0135C19.6727 19.0135 20.5471 18.8662 21.2479 18.6306L22.5784 21.3423C22.6312 21.4499 22.7071 21.5444 22.8007 21.6192C22.8942 21.694 23.0032 21.7472 23.1197 21.775C23.1817 21.7902 23.2446 21.7973 23.3076 21.7973C23.4833 21.7973 23.656 21.7405 23.7982 21.6328L24.2267 21.3088C24.3496 21.4612 24.4908 21.5973 24.6492 21.7141L23.4996 27.431H18.4885V25.9198C18.4885 25.4709 18.1249 25.1073 17.676 25.1073C17.2271 25.1073 16.8635 25.4709 16.8635 25.9198V27.431H13.6744V23.9159H13.6734ZM26 23.2345L26.844 27.43H25.156L26 23.2345ZM35.1376 27.43V25.9187C35.1376 25.4698 34.774 25.1062 34.3251 25.1062C33.8762 25.1062 33.5126 25.4698 33.5126 25.9187V27.43H28.5015L27.3518 21.713C27.5092 21.5973 27.6514 21.4612 27.7743 21.3088L28.2019 21.6328C28.3441 21.7405 28.5167 21.7973 28.6924 21.7973C28.7554 21.7973 28.8184 21.7902 28.8803 21.775C28.9969 21.7472 29.1058 21.694 29.1994 21.6192C29.293 21.5444 29.3689 21.4499 29.4217 21.3423L30.7511 18.6306C31.4519 18.8652 32.3264 19.0135 33.4192 19.0135C36.1258 19.0135 38.3287 21.2123 38.3287 23.9159V27.43H35.1376ZM50.4065 27.43H48.1549V25.9187C48.1549 25.4698 47.7913 25.1062 47.3424 25.1062C46.8935 25.1062 46.5299 25.4698 46.5299 25.9187V27.43H39.9537V23.9159C39.9537 21.6877 38.8294 19.7173 37.1181 18.5392C37.3923 18.4955 37.6696 18.4691 37.9509 18.4671H39.1341C39.8278 18.7555 40.5864 18.916 41.3817 18.916C42.1769 18.916 42.9356 18.7555 43.6292 18.4671H44.8053C47.8949 18.4925 50.4075 21.057 50.4075 24.1841V27.43H50.4065Z" fill="black"/>
<path d="M23.8438 4.44844C23.8979 4.35475 23.9701 4.27281 24.0563 4.20741C24.1424 4.14201 24.2408 4.09447 24.3456 4.06758C24.5568 4.01273 24.7813 4.04625 24.9681 4.15898C26.9263 5.3432 28.732 6.13438 31.1553 6.15063V5.42141C31.1553 3.3282 29.4501 1.625 27.3528 1.625H24.6523C23.2761 1.625 22.9369 2.17852 22.7764 2.77672C22.7274 2.95948 22.616 3.11935 22.4616 3.22867C21.5018 3.90914 20.9107 4.9918 20.8549 6.15063C22.2879 6.13234 23.1583 5.63672 23.8438 4.44844Z" fill="#87523E"/>
<path d="M29.312 17.8769C29.1799 17.7744 29.0611 17.6677 28.9534 17.5601L27.3091 18.919L28.3969 19.7426L29.312 17.8769Z" fill="#EBECED"/>
<path d="M44.8054 18.4673H43.6293C42.9356 18.7557 42.1769 18.9162 41.3817 18.9162C40.5865 18.9162 39.8278 18.7557 39.1341 18.4673H37.9509C37.6696 18.4693 37.3923 18.4957 37.1181 18.5394C38.8294 19.7175 39.9537 21.6878 39.9537 23.9161V27.4302H46.5299V25.9189C46.5299 25.47 46.8935 25.1064 47.3424 25.1064C47.7913 25.1064 48.1549 25.47 48.1549 25.9189V27.4302H50.4065V24.1832C50.4065 21.0561 47.8939 18.4917 44.8054 18.4673Z" fill="#82AEE3"/>
<path d="M24.2268 21.3087L23.7982 21.6327C23.6569 21.7395 23.4847 21.7973 23.3076 21.7972C23.2447 21.7972 23.1817 21.7901 23.1197 21.7749C23.0032 21.7471 22.8943 21.6939 22.8007 21.6191C22.7071 21.5443 22.6312 21.4498 22.5784 21.3422L21.2479 18.6305C20.5472 18.8651 19.6727 19.0134 18.5799 19.0134C15.8743 19.0134 13.6734 21.2122 13.6734 23.9158V27.4299H16.8625V25.9187C16.8625 25.4697 17.2261 25.1062 17.675 25.1062C18.1239 25.1062 18.4875 25.4697 18.4875 25.9187V27.4299H23.4986L24.6482 21.7129C24.4909 21.5969 24.3493 21.4611 24.2268 21.3087ZM22.6881 17.8769L23.6032 19.7426L24.6909 18.919L23.0466 17.5601C22.9389 17.6677 22.8201 17.7733 22.6881 17.8769Z" fill="#EBECED"/>
<path d="M10.6184 17.291C12.9817 17.291 14.9053 15.344 14.9053 12.9502C14.9053 10.5554 12.9828 8.60637 10.6184 8.60637C8.25604 8.60637 6.33447 10.5554 6.33447 12.9502C6.33447 15.343 8.25705 17.291 10.6184 17.291ZM26 15.4425C28.4355 15.4425 30.416 13.4651 30.416 11.0357V7.75223C28.532 7.63238 26.8176 7.07887 24.7975 5.94238C23.9931 6.99051 22.9471 7.57043 21.5861 7.72988V11.0357C21.5861 13.4651 23.5666 15.4425 26 15.4425Z" fill="#FFCEBF"/>
<path d="M14.881 18.5404C14.6037 18.4958 14.3234 18.4694 14.0421 18.4663H12.866C12.1723 18.7547 11.4136 18.9152 10.6184 18.9152C9.82318 18.9152 9.06552 18.7547 8.37185 18.4663H7.19169C4.10825 18.4917 1.59357 21.0562 1.59357 24.1833V27.4302H3.84825V25.919C3.84825 25.4701 4.21185 25.1065 4.66075 25.1065C5.10966 25.1065 5.47325 25.4701 5.47325 25.919V27.4302H12.0494V23.9162C12.0484 21.6879 13.1717 19.7186 14.881 18.5404Z" fill="#82AEE3"/>
<path d="M33.4191 19.0138C32.3263 19.0138 31.4519 18.8665 30.7511 18.6309L29.4217 21.3426C29.369 21.4502 29.2932 21.5449 29.1996 21.6197C29.106 21.6945 28.9969 21.7476 28.8803 21.7752C28.8184 21.7905 28.7554 21.7976 28.6924 21.7976C28.5167 21.7976 28.3441 21.7407 28.2019 21.633L27.7743 21.3091C27.6514 21.4614 27.5092 21.5975 27.3518 21.7133L28.5015 27.4302H33.5126V25.919C33.5126 25.4701 33.8762 25.1065 34.3251 25.1065C34.774 25.1065 35.1376 25.4701 35.1376 25.919V27.4302H38.3297V23.9162C38.3287 21.2126 36.1268 19.0138 33.4191 19.0138Z" fill="#EBECED"/>
<path d="M25.1561 27.4299H26.844L26.0001 23.2344L25.1561 27.4299Z" fill="#FE646F"/>
<path d="M24.8727 16.96L26 17.8923L27.1274 16.96C26.7617 17.029 26.3849 17.0666 26 17.0666C25.6151 17.0676 25.2383 17.03 24.8727 16.96Z" fill="#FFCEBF"/>
<path d="M26.4774 20.3269L26 19.9663L25.5237 20.3269C25.6435 20.4538 25.8131 20.532 26 20.532C26.1869 20.532 26.3565 20.4538 26.4774 20.3269Z" fill="#FE646F"/>
<path d="M38.6243 36.8884L44.4844 32.4989C44.4357 32.2694 44.3382 32.053 44.1929 31.8591L44.1249 31.7676C43.8497 31.4 43.4475 31.1623 42.9904 31.0973C42.5324 31.0323 42.0794 31.1471 41.7138 31.4223L37.5751 34.523C38.2069 35.1192 38.607 35.9581 38.6243 36.8884Z" fill="#FFCEBF"/>
<path d="M49.2477 33.2435L49.1827 33.1541C48.6109 32.3985 47.5323 32.2451 46.7746 32.8139L37.5162 39.7486C36.9231 40.2828 36.138 40.6088 35.2778 40.6088H23.6367C23.1878 40.6088 22.8242 40.2452 22.8242 39.7963C22.8242 39.3474 23.1878 38.9838 23.6367 38.9838H35.2788C35.7135 38.9838 36.1116 38.8223 36.4153 38.5552C36.4335 38.5369 36.4528 38.5187 36.4732 38.5024C36.7982 38.1896 37.0003 37.7508 37.0003 37.2664V36.9526C37.0003 36.005 36.2284 35.2341 35.2788 35.2341H21.7832C20.6822 35.2341 19.7489 35.357 18.6621 35.6444L12.2972 37.3233C12.2241 37.3426 12.151 37.3507 12.0789 37.3497L12.2089 48.4931H29.0672C31.9506 48.4931 34.3261 48.1031 36.5534 46.2008L48.8709 35.6891C49.6407 35.033 49.8053 33.9869 49.2558 33.2537C49.2528 33.2496 49.2507 33.2465 49.2477 33.2435Z" fill="#FFCEBF"/>
<path d="M1.60266 34.1455L1.79157 50.3752H10.6041L10.4152 34.1455H1.60266ZM6.10493 49.2539C4.99383 49.2539 4.09094 48.35 4.09094 47.2379C4.09094 46.1278 4.99485 45.225 6.10493 45.225C7.215 45.225 8.11993 46.1278 8.11993 47.2379C8.11891 48.349 7.215 49.2539 6.10493 49.2539Z" fill="#425F77"/>
<path d="M6.10493 46.8496C5.89063 46.8496 5.71594 47.0233 5.71594 47.2376C5.71594 47.4529 5.89063 47.6286 6.10493 47.6286C6.20845 47.6283 6.30765 47.587 6.38076 47.5137C6.45387 47.4404 6.49493 47.3411 6.49493 47.2376C6.49431 47.1345 6.45296 47.0359 6.37989 46.9632C6.30683 46.8905 6.20799 46.8497 6.10493 46.8496Z" fill="#3C586B"/>
<path d="M19.7479 8.73543V10.4772C19.7479 10.5118 19.7793 10.5432 19.8149 10.5432H19.9622V8.66941H19.8149C19.7783 8.66941 19.7479 8.69988 19.7479 8.73543ZM32.2441 10.4772V8.73543C32.2441 8.7009 32.2126 8.66941 32.1771 8.66941H32.041V10.5422H32.1771C32.2126 10.5422 32.2441 10.5118 32.2441 10.4772ZM41.3817 17.2911C43.7451 17.2911 45.6686 15.3441 45.6686 12.9503C45.6686 10.5554 43.7461 8.60645 41.3817 8.60645C39.0173 8.60645 37.0947 10.5554 37.0947 12.9503C37.0947 15.3431 39.0173 17.2911 41.3817 17.2911Z" fill="#FFCEBF"/>
</g>
<defs>
<clipPath id="clip0_504_18136">
<rect width="52" height="52" fill="white"/>
</clipPath>
</defs>
</svg>
