<svg width="60" height="60" viewBox="0 0 60 60" fill="none" xmlns="http://www.w3.org/2000/svg">
<path fill-rule="evenodd" clip-rule="evenodd" d="M4 14.4C4 8.65661 8.6566 4 14.4 4H45.6C51.3434 4 56 8.65661 56 14.4V38.6668C56 44.4102 51.3434 49.0668 45.6 49.0668H36.8536L31.3043 55.4082C31.1416 55.5941 30.9411 55.7431 30.7162 55.8451C30.4912 55.9472 30.247 56 30 56C29.753 56 29.5088 55.9472 29.2839 55.8451C29.0589 55.7431 28.8584 55.5941 28.6957 55.4082L23.1473 49.0668H14.4C8.6566 49.0668 4 44.4102 4 38.6668V14.4ZM30 14.4C30.3928 14.4001 30.774 14.5335 31.081 14.7785C31.3881 15.0235 31.6028 15.3656 31.69 15.7486L32.6494 19.9666C32.8668 20.9224 33.3499 21.7973 34.043 22.4904C34.7361 23.1835 35.6109 23.6666 36.5667 23.884L40.7848 24.8434C41.1678 24.9307 41.5097 25.1454 41.7546 25.4525C41.9996 25.7595 42.133 26.1406 42.133 26.5334C42.133 26.9262 41.9996 27.3073 41.7546 27.6143C41.5097 27.9214 41.1678 28.1361 40.7848 28.2234L36.5667 29.1828C35.6109 29.4002 34.7361 29.8833 34.043 30.5764C33.3499 31.2695 32.8668 32.1444 32.6494 33.1002L31.69 37.3174C31.6027 37.7003 31.388 38.0423 31.0809 38.2872C30.7739 38.5322 30.3928 38.6656 30 38.6656C29.6072 38.6656 29.2261 38.5322 28.9191 38.2872C28.612 38.0423 28.3973 37.7003 28.31 37.3174L27.3506 33.1002C27.1332 32.1444 26.6501 31.2695 25.957 30.5764C25.2639 29.8833 24.3891 29.4002 23.4333 29.1828L19.2161 28.2234C18.8331 28.1361 18.4912 27.9214 18.2462 27.6143C18.0013 27.3073 17.8679 26.9262 17.8679 26.5334C17.8679 26.1406 18.0013 25.7595 18.2462 25.4525C18.4912 25.1454 18.8331 24.9307 19.2161 24.8434L23.4333 23.884C24.3891 23.6666 25.2639 23.1835 25.957 22.4904C26.6501 21.7973 27.1332 20.9224 27.3506 19.9666L28.31 15.7494C28.397 15.3663 28.6117 15.024 28.9187 14.7788C29.2258 14.5337 29.6071 14.4001 30 14.4Z" fill="url(#paint0_linear_1341_9908)"/>
<defs>
<linearGradient id="paint0_linear_1341_9908" x1="70.4248" y1="66.5068" x2="24.3015" y2="12.5481" gradientUnits="userSpaceOnUse">
<stop offset="0.003" stop-color="#FF37DF"/>
<stop offset="1" stop-color="#6E00FF"/>
</linearGradient>
</defs>
</svg>
