<svg width="48" height="48" viewBox="0 0 48 48" fill="none" xmlns="http://www.w3.org/2000/svg">
<path fill-rule="evenodd" clip-rule="evenodd" d="M31.4028 33.6737V31.4767C31.4028 28.2736 30.0099 25.3825 27.8033 23.3869C28.859 22.4023 30.2708 21.7982 31.8236 21.7982C33.456 21.7982 34.935 22.4651 36.0022 23.5388C37.0718 24.615 37.7346 26.103 37.7346 27.743C37.7346 29.3853 37.0718 30.8734 36.0022 31.9471C34.935 33.0233 33.456 33.6902 31.8236 33.6902C31.6825 33.6902 31.543 33.6852 31.4028 33.6737ZM44.5899 25.9768L42.809 25.3941C42.6088 25.3289 42.4694 25.1787 42.4185 24.9773C42.1601 23.9787 41.7672 23.0329 41.2603 22.1679C41.1536 21.9855 41.1462 21.7792 41.2414 21.5927L42.0929 19.9132C42.2118 19.6796 42.17 19.4056 41.9838 19.2207L40.2981 17.5222C40.1143 17.3374 39.842 17.2953 39.6098 17.4149L37.9405 18.2708C37.7543 18.3641 37.5501 18.3599 37.3688 18.2518C36.4962 17.735 35.5564 17.3428 34.5765 17.0865C34.3763 17.0353 34.2279 16.895 34.1622 16.6936L33.5831 14.9019C33.5019 14.6518 33.2812 14.49 33.0179 14.49H30.6341C30.3717 14.49 30.1502 14.6518 30.069 14.9019L29.4898 16.6936C29.425 16.895 29.2757 17.0353 29.0739 17.0865C28.0946 17.3432 27.1554 17.7353 26.2833 18.2518C26.102 18.3591 25.8969 18.3641 25.7115 18.2708L24.0422 17.4149C23.8101 17.2953 23.5378 17.3374 23.354 17.5222L21.6658 19.2207C21.4821 19.4056 21.4403 19.6796 21.5592 19.9132L21.9472 20.6807C23.7076 20.9052 25.3375 21.5605 26.7328 22.5336C28.0445 21.2378 29.8417 20.4348 31.8252 20.4348C33.8317 20.4348 35.6478 21.2535 36.9619 22.5756C38.2777 23.8995 39.0898 25.7267 39.0898 27.7438C39.0898 29.7625 38.2785 31.5897 36.9619 32.9119C35.6478 34.2357 33.8325 35.0528 31.8252 35.0528C31.6833 35.0528 31.5439 35.0503 31.4044 35.0412V39.5516C31.4044 40.0806 31.2576 40.5766 31.0025 41H33.0188C33.2812 41 33.5027 40.8382 33.5839 40.5882L34.1631 38.7939C34.2279 38.595 34.3772 38.4547 34.5773 38.4011C35.5699 38.1436 36.5099 37.7483 37.3696 37.2382C37.5509 37.1309 37.756 37.1235 37.9413 37.2192L39.6107 38.0759C39.8428 38.1956 40.1151 38.1535 40.2989 37.9661L41.9846 36.2701C42.1708 36.0852 42.2126 35.8112 42.0937 35.5777L41.2422 33.8957C41.1471 33.7083 41.1536 33.5053 41.2611 33.3229C41.7749 32.4454 42.164 31.4997 42.4169 30.5135C42.4702 30.3122 42.6097 30.1603 42.8073 30.0968L44.5907 29.5141C44.8392 29.4324 45 29.2104 45 28.9454V26.5471C44.9992 26.2805 44.8384 26.0585 44.5899 25.9768ZM15.0239 30.8453L16.5234 33.5218L18.0229 30.8453L17.2789 21.9575H15.7696L15.0239 30.8453ZM20.5839 21.9575H18.6373L19.3903 30.9361H19.3879C19.3969 31.0673 19.3715 31.2027 19.3018 31.3248L17.114 35.2294C17.0535 35.3394 16.9634 35.4301 16.854 35.491C16.5308 35.6759 16.119 35.5587 15.9353 35.2335L13.7754 31.3801C13.6893 31.2538 13.6425 31.0995 13.6565 30.9353L14.4095 21.9567H12.4629C7.25816 21.9575 3 26.2409 3 31.4767V39.5499C3 40.3455 3.64885 40.9984 4.44208 40.9984H8.93402V35.2971C8.93402 34.9207 9.23671 34.6162 9.61077 34.6162C9.98482 34.6162 10.2875 34.9207 10.2875 35.2971V40.9984H22.7601V35.2971C22.7601 34.9207 23.062 34.6162 23.4369 34.6162C23.8109 34.6162 24.1161 34.9207 24.1161 35.2971V40.9984H28.6088C29.3996 40.9984 30.0485 40.3455 30.0485 39.5499V31.4767C30.0476 26.2409 25.7903 21.9575 20.5839 21.9575ZM16.5242 19.4427C20.2024 19.4427 23.2047 16.4221 23.2047 12.7214C23.2047 9.01818 20.2024 6 16.5242 6C12.846 6 9.84373 9.01818 9.84373 12.7214C9.84373 16.4221 12.8452 19.4427 16.5242 19.4427Z" fill="#2563EB"/>
</svg>
