<svg width="52" height="52" viewBox="0 0 52 52" fill="none" xmlns="http://www.w3.org/2000/svg">
<g clip-path="url(#clip0_504_18121)">
<path d="M21.5879 13.3941C21.5879 12.5195 21.4539 11.6686 21.2097 10.8729L23.4709 9.41528L20.9182 5.4365L18.6491 6.89407C17.6748 6.04436 16.5266 5.41783 15.2849 5.05832V2.36377H10.5576V5.05832C9.29698 5.41286 8.15456 6.05104 7.19334 6.89407L4.92425 5.4365L2.36365 9.41528L4.62486 10.8729C4.3885 11.6686 4.25456 12.5195 4.25456 13.3941C4.25456 14.2686 4.3885 15.1195 4.63274 15.9153L2.36365 17.3729L4.92425 21.3516L7.19334 19.8941C8.15456 20.7371 9.29698 21.3753 10.5576 21.7298V24.4244H15.2849V21.7298C16.5455 21.3753 17.6879 20.7371 18.6491 19.8941L20.9182 21.3516L23.4788 17.3729L21.2176 15.9153C21.4539 15.1195 21.5879 14.2686 21.5879 13.3941ZM12.9212 18.1213C10.3133 18.1213 8.19395 16.002 8.19395 13.3941C8.19395 10.7862 10.3133 8.6668 12.9212 8.6668C15.5291 8.6668 17.6485 10.7862 17.6485 13.3941C17.6485 16.002 15.5291 18.1213 12.9212 18.1213Z" fill="#8ABA55"/>
<path d="M47.7455 38.606C47.7455 37.7314 47.6115 36.8805 47.3673 36.0848L49.6364 34.6272L47.0758 30.6484L44.8067 32.106C43.8364 31.2506 42.6868 30.6233 41.4424 30.2702V27.5757H36.7152V30.2702C35.4546 30.6248 34.3122 31.263 33.3509 32.106L31.0818 30.6484L28.5212 34.6272L30.7825 36.0848C30.2788 37.7278 30.2788 39.4841 30.7825 41.1272L28.5212 42.5848L31.0818 46.5636L33.3509 45.106C34.3122 45.949 35.4546 46.5872 36.7152 46.9417V49.6363H41.4424V46.9417C42.7031 46.5872 43.8455 45.949 44.8067 45.106L47.0758 46.5636L49.6364 42.5848L47.3752 41.1272C47.6115 40.3314 47.7455 39.4805 47.7455 38.606ZM39.0788 43.3333C36.4709 43.3333 34.3515 41.2139 34.3515 38.606C34.3515 35.9981 36.4709 33.8787 39.0788 33.8787C41.6867 33.8787 43.8061 35.9981 43.8061 38.606C43.8061 41.2139 41.6946 43.3333 39.0788 43.3333Z" fill="#7CB5E8"/>
<path d="M14.1975 28.5921C14.5048 30.0103 15.0642 31.3339 15.8206 32.5157L13.9139 35.0921L16.9078 38.086L19.4842 36.1794C20.666 36.9357 21.9897 37.4951 23.4078 37.8024L23.8806 40.9697H28.1115L28.5842 37.8024C30.0024 37.4951 31.326 36.9357 32.5078 36.1794L35.0842 38.086L38.0782 35.0921L36.1715 32.5157C36.9279 31.3339 37.4872 30.0103 37.7945 28.5921L40.9618 28.1194V23.8885L37.7945 23.4157C37.4872 21.9975 36.9279 20.6739 36.1715 19.4921L38.0782 16.9157L35.0842 13.9218L32.5078 15.8285C31.326 15.0721 30.0024 14.5127 28.5842 14.2054L28.1194 11.0303H23.8885L23.4157 14.1975C21.9975 14.5048 20.6739 15.0642 19.4921 15.8206L16.9157 13.9139L13.9218 16.9078L15.8285 19.4842C15.0721 20.666 14.5127 21.9897 14.2054 23.4078L11.0303 23.8806V28.1115L14.1975 28.5921ZM20.2878 26C20.2878 22.8406 22.8485 20.2878 26 20.2878C29.1594 20.2878 31.7121 22.8485 31.7121 26C31.7121 29.1515 29.1515 31.7121 26 31.7121C22.8406 31.7121 20.2878 29.1594 20.2878 26Z" fill="#FFAB03"/>
<path opacity="0.3" d="M36.1794 19.4842L38.0861 16.9078L35.0922 13.9139L32.5158 15.8206C31.334 15.0642 30.0103 14.5048 28.5922 14.1975L28.1194 11.0303H23.8885L23.4158 14.1975C21.9976 14.5048 20.674 15.0642 19.4922 15.8206L19.0273 15.4818C18.403 18.6257 18.905 21.8891 20.4455 24.7C20.7643 23.3349 21.5739 22.1347 22.7203 21.3279C23.8666 20.5211 25.2696 20.164 26.6622 20.3246C28.0548 20.4852 29.3397 21.1522 30.2723 22.1987C31.205 23.2452 31.7202 24.5982 31.72 26C31.72 28.3242 30.3334 30.3097 28.3479 31.2078C29.6558 31.6254 31.0503 31.846 32.5 31.846C34.06 31.846 35.557 31.5703 36.9515 31.0975C37.3218 30.3018 37.6212 29.4666 37.8103 28.5842L40.9776 28.1115V23.8806L37.8103 23.4078C37.4952 21.9897 36.9358 20.666 36.1794 19.4842Z" fill="white"/>
<path d="M50.8418 24.0068C50.7306 23.8969 50.5806 23.8353 50.4242 23.8353C50.2679 23.8353 50.1179 23.8969 50.0067 24.0068L48.6358 25.3777C48.3048 13.1735 38.283 3.34863 26 3.34863C25.677 3.34863 25.4091 3.61651 25.4091 3.93954C25.4091 4.26257 25.677 4.53045 26 4.53045C37.6212 4.53045 47.1073 13.8117 47.4539 25.3462L46.1145 24.0068C45.8861 23.7783 45.5079 23.7783 45.2794 24.0068C45.0509 24.2353 45.0509 24.6135 45.2794 24.842L47.643 27.2056C47.7612 27.3238 47.9109 27.3789 48.0606 27.3789C48.2103 27.3789 48.36 27.3238 48.4782 27.2056L50.8418 24.842C51.0703 24.6135 51.0703 24.2353 50.8418 24.0068ZM26 47.4698C14.3788 47.4698 4.89273 38.1886 4.54606 26.6541L5.88545 27.9935C6.00363 28.1117 6.15333 28.1668 6.30303 28.1668C6.45273 28.1668 6.60242 28.1117 6.7206 27.9935C6.94909 27.765 6.94909 27.3868 6.7206 27.1583L4.35697 24.7947C4.24577 24.6848 4.09573 24.6232 3.93939 24.6232C3.78305 24.6232 3.63302 24.6848 3.52182 24.7947L1.15818 27.1583C0.929695 27.3868 0.929695 27.765 1.15818 27.9935C1.38666 28.222 1.76485 28.222 1.99333 27.9935L3.36424 26.6226C3.69515 38.8268 13.717 48.6517 26 48.6517C26.323 48.6517 26.5909 48.3838 26.5909 48.0608C26.5909 47.7377 26.323 47.4698 26 47.4698Z" fill="#4E6575"/>
</g>
<defs>
<clipPath id="clip0_504_18121">
<rect width="52" height="52" fill="white"/>
</clipPath>
</defs>
</svg>
