<svg width="60" height="60" viewBox="0 0 60 60" fill="none" xmlns="http://www.w3.org/2000/svg">
<path d="M10.0953 46.7281C6.29726 42.2136 4.00692 36.3887 4.00002 30.0289C3.98448 15.7506 15.3713 4.19103 29.6484 4.00232C44.1689 3.81047 56 15.5236 56 30C56 33.2063 55.4196 36.2771 54.3582 39.1129C54.0316 39.9853 53.1964 40.5625 52.2649 40.5625H16.9061C13.7047 40.5625 11.1094 43.1578 11.1094 46.3592C11.1094 46.895 10.4402 47.1382 10.0953 46.7281Z" fill="#2DD2E3"/>
<path d="M19.1837 25.7006V42.9662H15.2305V50.2509C15.2305 50.7349 14.6759 51.0118 14.2904 50.7191C12.7235 49.5291 11.2959 48.1661 10.0347 46.6559V42.9662H8.13386C7.86553 42.9662 7.60949 42.9142 7.37498 42.8196C6.90405 41.9904 6.47928 41.1357 6.10261 40.2596V27.8672H6.03131C5.22826 27.8672 4.53408 27.4011 4.20441 26.7248C5.00675 20.3412 8.1235 14.6779 12.6878 10.6016H13.8961C15.018 10.6016 15.9274 11.511 15.9274 12.6328V25.7006H19.1837Z" fill="#00BFD8"/>
<path d="M45.6428 10.6792V23.8823C45.6428 25.0042 44.7334 25.9136 43.6115 25.9136H6.03339C4.91153 25.9136 4.00214 25.0042 4.00214 23.8823V10.6792C4.00214 9.55734 4.91153 8.64795 6.03339 8.64795H43.6115C44.7334 8.64795 45.6428 9.55734 45.6428 10.6792Z" fill="#FF5757"/>
<path d="M9.08026 25.9136H6.03339C4.91153 25.9136 4.00214 25.0042 4.00214 23.8823V10.6792C4.00214 9.55734 4.91153 8.64795 6.03339 8.64795H9.08026C7.9584 8.64795 7.04901 9.55734 7.04901 10.6792V23.8823C7.04901 25.0042 7.9584 25.9136 9.08026 25.9136Z" fill="#FF4343"/>
<path d="M42.4943 23.8823H16.0881C15.5271 23.8823 15.0724 23.4276 15.0724 22.8667V11.6948C15.0724 11.1339 15.5271 10.6792 16.0881 10.6792H42.4943C43.0553 10.6792 43.5099 11.1339 43.5099 11.6948V22.8667C43.5099 23.4276 43.0553 23.8823 42.4943 23.8823Z" fill="#FF7A7A"/>
<path d="M28.2756 13.4722C28.2756 13.2701 28.3558 13.0764 28.4987 12.9336C28.6415 12.7907 28.8353 12.7104 29.0373 12.7104H40.4631C40.6651 12.7104 40.8588 12.7907 41.0017 12.9336C41.1445 13.0764 41.2248 13.2701 41.2248 13.4722C41.2248 13.6742 41.1445 13.8679 41.0017 14.0108C40.8588 14.1536 40.6651 14.2339 40.4631 14.2339H29.0373C28.8353 14.2339 28.6415 14.1536 28.4987 14.0108C28.3558 13.8679 28.2756 13.6742 28.2756 13.4722ZM40.4631 16.0958H29.0373C28.8353 16.0958 28.6415 16.1761 28.4987 16.3189C28.3558 16.4618 28.2756 16.6555 28.2756 16.8576C28.2756 17.0596 28.3558 17.2533 28.4987 17.3962C28.6415 17.539 28.8353 17.6193 29.0373 17.6193H40.4631C40.6651 17.6193 40.8588 17.539 41.0017 17.3962C41.1445 17.2533 41.2248 17.0596 41.2248 16.8576C41.2248 16.6555 41.1445 16.4618 41.0017 16.3189C40.8588 16.1761 40.6651 16.0958 40.4631 16.0958ZM37.0586 19.4813H29.0373C28.8353 19.4813 28.6415 19.5616 28.4987 19.7044C28.3558 19.8473 28.2756 20.041 28.2756 20.243C28.2756 20.4451 28.3558 20.6388 28.4987 20.7817C28.6415 20.9245 28.8353 21.0048 29.0373 21.0048H37.0586C37.2606 21.0048 37.4544 20.9245 37.5972 20.7817C37.7401 20.6388 37.8203 20.4451 37.8203 20.243C37.8203 20.041 37.7401 19.8473 37.5972 19.7044C37.4544 19.5616 37.2606 19.4813 37.0586 19.4813Z" fill="#FF9A9A"/>
<path d="M48.8652 41.2734H11.084C9.96213 41.2734 9.05273 40.364 9.05273 39.2422V26.0391C9.05273 24.9172 9.96213 24.0078 11.084 24.0078H48.8652C49.9871 24.0078 50.8965 24.9172 50.8965 26.0391V39.2422C50.8965 40.364 49.9871 41.2734 48.8652 41.2734Z" fill="#4BCD5C"/>
<path d="M14.1309 41.2734H11.084C9.96213 41.2734 9.05273 40.364 9.05273 39.2422V26.0391C9.05273 24.9172 9.96213 24.0078 11.084 24.0078H14.1309C13.009 24.0078 12.0996 24.9172 12.0996 26.0391V39.2422C12.0996 40.364 13.009 41.2734 14.1309 41.2734Z" fill="#00C53B"/>
<path d="M47.748 39.2422H21.3418C20.7809 39.2422 20.3262 38.7875 20.3262 38.2266V27.0547C20.3262 26.4938 20.7809 26.0391 21.3418 26.0391H47.748C48.309 26.0391 48.7637 26.4938 48.7637 27.0547V38.2266C48.7637 38.7875 48.309 39.2422 47.748 39.2422Z" fill="#74D579"/>
<path d="M45.7168 28.0703H34.291C34.089 28.0703 33.8952 28.1506 33.7524 28.2934C33.6095 28.4363 33.5293 28.63 33.5293 28.832C33.5293 29.0341 33.6095 29.2278 33.7524 29.3706C33.8952 29.5135 34.089 29.5938 34.291 29.5938H45.7168C45.9188 29.5938 46.1126 29.5135 46.2554 29.3706C46.3983 29.2278 46.4785 29.0341 46.4785 28.832C46.4785 28.63 46.3983 28.4363 46.2554 28.2934C46.1126 28.1506 45.9188 28.0703 45.7168 28.0703ZM45.7168 31.4557H34.291C34.089 31.4557 33.8952 31.5359 33.7524 31.6788C33.6095 31.8216 33.5293 32.0154 33.5293 32.2174C33.5293 32.4194 33.6095 32.6132 33.7524 32.756C33.8952 32.8989 34.089 32.9791 34.291 32.9791H45.7168C45.9188 32.9791 46.1126 32.8989 46.2554 32.756C46.3983 32.6132 46.4785 32.4194 46.4785 32.2174C46.4785 32.0154 46.3983 31.8216 46.2554 31.6788C46.1126 31.5359 45.9188 31.4557 45.7168 31.4557ZM42.3123 34.8412H34.291C34.089 34.8412 33.8952 34.9214 33.7524 35.0643C33.6095 35.2071 33.5293 35.4009 33.5293 35.6029C33.5293 35.8049 33.6095 35.9987 33.7524 36.1415C33.8952 36.2844 34.089 36.3646 34.291 36.3646H42.3123C42.5143 36.3646 42.7081 36.2844 42.8509 36.1415C42.9938 35.9987 43.074 35.8049 43.074 35.6029C43.074 35.4009 42.9938 35.2071 42.8509 35.0643C42.7081 34.9214 42.5143 34.8412 42.3123 34.8412Z" fill="#AFE6AF"/>
<path d="M30 56C24.0829 56 18.6273 54.0234 14.2578 50.6944V40.7656C14.2578 39.6438 15.1672 38.7344 16.2891 38.7344H53.9688C54.1431 38.7344 54.3123 38.7563 54.4738 38.7976C54.1999 39.5594 53.8904 40.3078 53.5462 41.0405C53.3829 41.3882 52.5283 41.3719 52.3501 41.7111C49.7761 46.6127 45.6834 50.5919 40.6973 53.0233C40.2739 53.2298 40.5278 53.785 40.0919 53.9688C36.989 55.2769 33.579 56 30 56Z" fill="#0571B5"/>
<path d="M53.5463 41.0405C52.6858 42.8715 51.6146 44.5958 50.3544 46.1786C50.283 46.2683 49.8988 46.2844 49.8263 46.3732C49.5704 46.6862 49.3072 46.9933 49.037 47.2941C48.9359 47.4066 49.1461 47.5914 49.043 47.7021C48.4345 48.3564 47.793 48.979 47.1208 49.5676C47.0467 49.6325 46.7741 49.5832 46.6992 49.6473C46.2421 50.0386 45.7715 50.4139 45.2884 50.7727C45.1959 50.8414 45.3008 51.0235 45.2073 51.0911C43.6164 52.2406 41.9004 53.2059 40.092 53.9686H26.4453C25.8844 53.9686 25.4297 53.514 25.4297 52.953V41.7813C25.4297 41.2203 25.8844 40.7656 26.4453 40.7656H52.8516C53.1097 40.7653 53.3582 40.8636 53.5463 41.0405Z" fill="#3081C4"/>
<path d="M39.3945 42.7969H50.8203C51.0223 42.7969 51.2161 42.8771 51.3589 43.02C51.5018 43.1628 51.582 43.3566 51.582 43.5586C51.582 43.7606 51.5018 43.9544 51.3589 44.0972C51.2161 44.2401 51.0223 44.3203 50.8203 44.3203H39.3945C39.1925 44.3203 38.9988 44.2401 38.8559 44.0972C38.7131 43.9544 38.6328 43.7606 38.6328 43.5586C38.6328 43.3566 38.7131 43.1628 38.8559 43.02C38.9988 42.8771 39.1925 42.7969 39.3945 42.7969ZM39.3945 49.5677C39.1925 49.5677 38.9988 49.648 38.8559 49.7908C38.7131 49.9337 38.6328 50.1274 38.6328 50.3295C38.6328 50.5315 38.7131 50.7252 38.8559 50.8681C38.9988 51.0109 39.1925 51.0912 39.3945 51.0912H45.2073C45.8685 50.6135 46.5071 50.1051 47.1208 49.5677H39.3945ZM50.3515 46.1823H39.3945C39.1925 46.1823 38.9988 46.2625 38.8559 46.4054C38.7131 46.5482 38.6328 46.742 38.6328 46.944C38.6328 47.146 38.7131 47.3397 38.8559 47.4826C38.9988 47.6254 39.1925 47.7057 39.3945 47.7057H49.0397C49.4964 47.2149 49.934 46.7067 50.3515 46.1823Z" fill="#75A7D5"/>
<path d="M16.2891 38.7344H19.3359C18.2141 38.7344 17.3047 39.6438 17.3047 40.7656V52.6952C16.2436 52.1002 15.2255 51.4317 14.2578 50.6944V40.7656C14.2578 39.6438 15.1672 38.7344 16.2891 38.7344Z" fill="#05609B"/>
<path d="M10.97 22.5928C10.768 22.5928 10.5743 22.5125 10.4314 22.3697C10.2886 22.2268 10.2083 22.0331 10.2083 21.8311V14.4878H9.23767C9.03565 14.4878 8.8419 14.4075 8.69905 14.2647C8.5562 14.1218 8.47595 13.9281 8.47595 13.7261C8.47595 13.5241 8.5562 13.3303 8.69905 13.1875C8.8419 13.0446 9.03565 12.9644 9.23767 12.9644H10.97C11.172 12.9644 11.3658 13.0446 11.5086 13.1875C11.6515 13.3303 11.7317 13.5241 11.7317 13.7261V21.8311C11.7317 22.0331 11.6515 22.2268 11.5086 22.3697C11.3658 22.5125 11.172 22.5928 10.97 22.5928ZM24.9588 16.9873L18.7231 13.3344C18.4964 13.2016 18.2111 13.3651 18.2111 13.6279V20.9335C18.2111 21.1962 18.4964 21.3597 18.7231 21.2269L24.9588 17.5741C25.1831 17.4429 25.1831 17.1187 24.9588 16.9873ZM30.2127 32.9339L23.9769 36.5867C23.7502 36.7195 23.465 36.556 23.465 36.2933V28.9877C23.465 28.7249 23.7502 28.5614 23.9769 28.6943L30.2127 32.3471C30.4369 32.4784 30.4369 32.8026 30.2127 32.9339ZM18.1632 37.5144C18.5839 37.5091 18.9205 37.1638 18.9153 36.7431C18.91 36.3224 18.5635 35.9876 18.144 35.991C17.1993 36.0029 16.191 36.0103 15.4208 36.0096C15.8779 35.4035 16.5592 34.482 17.5324 33.0916C18.0388 32.368 18.3683 31.687 18.5121 31.0674C18.5178 31.0425 18.5224 31.0173 18.5256 30.9919L18.5657 30.6784C18.5698 30.6464 18.5719 30.6141 18.5719 30.5818C18.5719 29.0181 17.2998 27.7462 15.7362 27.7462C14.3842 27.7462 13.214 28.708 12.9538 30.0331C12.9183 30.2299 12.9616 30.4328 13.0744 30.598C13.1872 30.7632 13.3605 30.8774 13.5567 30.9159C13.753 30.9545 13.9565 30.9143 14.1234 30.804C14.2903 30.6938 14.4072 30.5223 14.4487 30.3267C14.5691 29.7141 15.1105 29.2696 15.7362 29.2696C16.4454 29.2696 17.025 29.8351 17.0478 30.5388L17.0198 30.758C16.9152 31.1792 16.6679 31.6701 16.2844 32.2182C14.9987 34.055 14.2314 35.0599 13.8191 35.5997C13.3166 36.2576 13.1286 36.5037 13.2615 36.9359C13.3384 37.1859 13.5283 37.378 13.7827 37.4629C13.8862 37.4973 13.9995 37.5351 15.5453 37.5351C16.1608 37.5349 17.0035 37.529 18.1632 37.5144ZM35.3162 47.6604L29.0804 51.3132C28.8538 51.4461 28.5685 51.2826 28.5685 51.0198V43.7142C28.5685 43.4515 28.8538 43.288 29.0804 43.4208L35.3162 47.0736C35.5404 47.2049 35.5404 47.5291 35.3162 47.6604ZM22.3932 47.8648C22.9489 47.3468 23.2969 46.6088 23.2969 45.7909C23.2969 44.2273 22.0248 42.9553 20.4612 42.9553C19.1092 42.9553 17.939 43.9171 17.6788 45.2421C17.6399 45.4404 17.6813 45.6459 17.794 45.8136C17.9066 45.9813 18.0813 46.0974 18.2795 46.1364C18.6922 46.2171 19.0927 45.9485 19.1737 45.5358C19.2941 44.9233 19.8355 44.4788 20.4612 44.4788C21.1849 44.4788 21.7734 45.0675 21.7734 45.791C21.7734 46.5145 21.1848 47.1032 20.4612 47.1032C20.2592 47.1032 20.0655 47.1834 19.9226 47.3263C19.7798 47.4691 19.6995 47.6629 19.6995 47.8649C19.6995 48.0669 19.7798 48.2607 19.9226 48.4035C20.0655 48.5464 20.2592 48.6266 20.4612 48.6266C21.1849 48.6266 21.7734 49.2153 21.7734 49.9388C21.7734 50.6623 21.1848 51.251 20.4612 51.251C19.8101 51.251 19.2515 50.766 19.1618 50.1228C19.1534 50.0618 19.1491 50.0004 19.1492 49.9388C19.1492 49.7368 19.0689 49.543 18.9261 49.4002C18.7832 49.2573 18.5895 49.1771 18.3874 49.1771C18.1854 49.1771 17.9917 49.2573 17.8488 49.4002C17.706 49.543 17.6257 49.7368 17.6257 49.9388C17.6258 50.0708 17.6349 50.2026 17.653 50.3333C17.8472 51.725 19.0545 52.7744 20.4613 52.7744C22.025 52.7744 23.297 51.5023 23.297 49.9388C23.2969 49.1209 22.9488 48.3829 22.3932 47.8648Z" fill="white"/>
</svg>
