<svg width="64" height="63" viewBox="0 0 64 63" fill="none" xmlns="http://www.w3.org/2000/svg">
<g clip-path="url(#clip0_508_22391)">
<path d="M28.3989 32.4911L34.2656 26.6245C32.9463 25.7823 31.3818 25.292 29.704 25.292C25.0148 25.292 21.1998 29.1069 21.1998 33.7961C21.1998 38.4853 25.0148 42.3003 29.704 42.3003C34.3932 42.3003 38.2081 38.4853 38.2081 33.7961C38.2081 32.1184 37.7178 30.5538 36.8756 29.2345L31.009 35.1012L28.3989 32.4911Z" fill="#2563EB"/>
<path d="M58.9081 33.7959C58.9081 28.7802 57.6269 23.8753 55.1942 19.5346L47.9224 20.531C50.6418 24.2558 52.2496 28.8413 52.2496 33.7959C52.2496 46.2275 42.1357 56.3415 29.7039 56.3415C17.2722 56.3415 7.15844 46.2275 7.15844 33.7959C7.15844 21.3642 17.2724 11.2504 29.7041 11.2504C34.6587 11.2504 39.2441 12.8581 42.9689 15.5775L43.9653 8.30572C39.6246 5.87308 34.7197 4.5918 29.7041 4.5918C21.9034 4.5918 14.5695 7.62958 9.05373 13.1455C3.53778 18.6613 0.5 25.9952 0.5 33.7959C0.5 41.5965 3.53778 48.9304 9.05373 54.4462C14.5695 59.9623 21.9033 62.9999 29.7041 62.9999C37.5049 62.9999 44.8386 59.9622 50.3544 54.4462C55.8704 48.9304 58.9081 41.5967 58.9081 33.7959Z" fill="#2563EB"/>
<path d="M29.7041 14.9418C19.3078 14.9418 10.8499 23.3997 10.8499 33.7961C10.8499 44.1924 19.3077 52.6503 29.7041 52.6503C40.1004 52.6503 48.5583 44.1924 48.5583 33.7961C48.5583 29.2612 46.9486 25.0954 44.2711 21.8392L39.5297 26.5806C41.0186 28.6025 41.8997 31.0981 41.8997 33.7961C41.8997 40.5207 36.4288 45.9916 29.7042 45.9916C22.9796 45.9916 17.5087 40.5207 17.5087 33.7961C17.5087 27.0714 22.9796 21.6005 29.7042 21.6005C32.4021 21.6005 34.8976 22.4816 36.9197 23.9705L41.661 19.2291C38.4047 16.5514 34.239 14.9418 29.7041 14.9418ZM55.9089 0L47.7052 8.20366L46.4997 17.0003L55.2964 15.7948L63.5 7.59113L57.9627 5.53736L55.9089 0Z" fill="#2563EB"/>
</g>
<defs>
<clipPath id="clip0_508_22391">
<rect width="63" height="63" fill="white" transform="translate(0.5)"/>
</clipPath>
</defs>
</svg>
