<svg width="57" height="11" viewBox="0 0 57 11" fill="none" xmlns="http://www.w3.org/2000/svg">
<g clip-path="url(#clip0_620_195)">
<path d="M42.514 6.7849C42.514 5.44911 41.6198 4.39957 40.4912 4.39957C39.3787 4.39957 38.4684 5.44911 38.4684 6.7849C38.4684 8.12069 39.3787 9.17024 40.4912 9.17024C41.6198 9.17024 42.514 8.12069 42.514 6.7849ZM44.1642 2.87931V10.6969H42.4821V9.9908C41.8966 10.5696 41.1566 10.894 40.3528 10.894C38.362 10.894 36.8076 9.06847 36.8076 6.7849C36.8076 4.5077 38.3673 2.67576 40.3528 2.67576C41.1566 2.67576 41.8966 3.00017 42.4821 3.57901V2.87931H44.1642ZM49.7536 8.92217H48.4867C48.1034 8.92217 47.8532 8.72498 47.8532 8.30516V4.64764H49.7483V2.87931H47.8532V0.652995H46.1551V2.87931H44.8775V4.654H46.1551V8.80767C46.1551 9.85722 46.7886 10.6905 47.9277 10.6905H49.7483V8.92217H49.7536ZM53.5863 10.894C55.5293 10.894 56.6258 9.80633 56.6258 8.30516C56.6258 7.23653 55.9764 6.44141 54.619 6.09793L53.1817 5.75444C52.3513 5.57633 52.0851 5.39187 52.0851 5.02929C52.0851 4.55859 52.4844 4.27235 53.2243 4.27235C54.0281 4.27235 54.6137 4.52678 54.784 5.39187H56.4661C56.3756 3.76348 55.3696 2.67576 53.3361 2.67576C51.5794 2.67576 50.3445 3.52812 50.3445 5.1756C50.3445 6.3142 51.0258 7.05842 52.4897 7.42099L54.092 7.85353C54.7255 7.99984 54.8958 8.19702 54.8958 8.50235C54.8958 8.99214 54.4167 9.29746 53.6448 9.29746C52.676 9.29746 52.1171 9.04302 51.9042 8.17794H50.2061C50.4563 9.80633 51.489 10.894 53.5863 10.894ZM30.0205 0.105957H36.3604V1.91245H31.7346V4.50134H36.238V6.25695H31.7346V8.87764H36.3604V10.6841H30.0205V0.105957Z" fill="#06C167"/>
<path d="M27.0073 4.33596V2.91747H26.5548C25.8362 2.91747 25.3039 3.31185 24.9845 3.92886V2.97472H23.6963V10.6778H24.9951V6.30147C24.9951 5.10562 25.6126 4.33596 26.4643 4.33596H27.0073ZM17.6598 6.11701C17.894 4.94024 18.7031 4.15149 19.6666 4.15149C20.6301 4.15149 21.4446 4.93388 21.6628 6.11701H17.6598ZM19.6932 2.82842C17.7769 2.82842 16.3183 4.654 16.3183 6.82943C16.3183 9.12571 17.8354 10.8495 19.8103 10.8495C21.0081 10.8495 21.9875 10.2325 22.6423 9.20204L21.7001 8.38785C21.2103 9.15752 20.5662 9.52009 19.805 9.52009C18.6978 9.52009 17.8088 8.58504 17.6278 7.33194H22.9723V6.83579C22.9776 4.53314 21.5883 2.82842 19.6932 2.82842ZM12.262 9.52009C11.0005 9.52009 9.99437 8.32424 9.99437 6.84851C9.99437 5.3537 11.0111 4.17693 12.262 4.17693C13.497 4.17693 14.5138 5.3537 14.5138 6.84851C14.5191 8.32424 13.5024 9.52009 12.262 9.52009ZM8.72212 10.6841H10.0103V9.71728C10.6012 10.4297 11.4423 10.8622 12.3525 10.8622C14.2849 10.8622 15.802 9.0621 15.802 6.84215C15.802 4.60947 14.2849 2.80934 12.3525 2.80934C11.437 2.80934 10.6119 3.24824 10.021 3.9543V0.105957H8.72212V10.6841ZM4.1495 9.44376C5.40045 9.44376 6.36395 8.31152 6.36395 6.63224V0.105957H7.71604V10.6778H6.3746V9.69819C5.76775 10.4361 4.93201 10.8622 3.9898 10.8622C2.05748 10.8622 0.577637 9.21477 0.577637 6.72129V0.105957H1.93505V6.63224C1.93505 8.34332 2.8879 9.44376 4.1495 9.44376Z" fill="#142328"/>
</g>
<defs>
<clipPath id="clip0_620_195">
<rect width="56" height="11" fill="white" transform="translate(0.604492)"/>
</clipPath>
</defs>
</svg>
